<svg id="Layer_1" data-name="Layer 1" xmlns="http://www.w3.org/2000/svg" viewBox="0 0 500 256.78"><path d="M127.45,138.45A13.51,13.51,0,0,1,123,141a38.68,38.68,0,0,1-58.86,19.25v4.28a42.29,42.29,0,0,0,63.32-26.07Z"/><path d="M45.22,118.46A13.65,13.65,0,0,1,49.66,116a38.7,38.7,0,0,1,58.76-19.27V92.44a42.28,42.28,0,0,0-63.2,26Z"/><path d="M35.88,128.51a50.13,50.13,0,0,0,4.55,20.88V136.85a46.62,46.62,0,0,1,45.89-55,46.31,46.31,0,0,1,22.1,5.58V83.18a50.42,50.42,0,0,0-72.54,45.33Z"/><path d="M54.56,115.3h3.69a31,31,0,0,1,50.17-8.55v-4.59A34.37,34.37,0,0,0,54.56,115.3Z"/><path d="M136.76,128.51a50.24,50.24,0,0,0-4.63-21.09v12.24a46.65,46.65,0,0,1-68,49.88v4.25a50.41,50.41,0,0,0,72.63-45.28Z"/><path d="M77,23.88q4.62-.42,9.33-.42,4,0,7.83.29c-1.36-1.74-2.64-3.28-3.74-4.55-1.36-.05-2.72-.08-4.09-.08-1.57,0-3.13,0-4.68.11Z"/><path d="M118.09,141.72h-3.7a31,31,0,0,1-50.26,8.44v4.61a34.38,34.38,0,0,0,54-13.05Z"/><path d="M12.41,128.51a73.8,73.8,0,0,0,28,57.87V182a70.46,70.46,0,0,1,68-120.39V58a73.91,73.91,0,0,0-96,70.54Z"/><path d="M86.32,233.56c-2.66,0-5.31-.1-7.92-.3,1.36,1.74,2.64,3.28,3.74,4.55,1.39.05,2.78.09,4.18.09s3.07,0,4.59-.11l4.65-4.64C92.51,233.41,89.43,233.56,86.32,233.56Z"/><path d="M144.55,128.51a58,58,0,0,0-12.42-35.89v5.89a54.74,54.74,0,0,1-68,80.06v3.76a58.22,58.22,0,0,0,80.42-53.82Z"/><path d="M86.32,101.82A26.7,26.7,0,0,0,63.15,115.3l1,28a26.67,26.67,0,0,0,45.37-1.59l-1.08-28.16A26.68,26.68,0,0,0,86.32,101.82Zm0,48.26a21.58,21.58,0,1,1,21.58-21.57A21.59,21.59,0,0,1,86.32,150.08Z"/><path d="M152.49,128.51a66,66,0,0,0-20.36-47.68V86a62.53,62.53,0,0,1-68,101v3.84a66.15,66.15,0,0,0,88.36-62.32Z"/><path d="M28.1,128.51a57.89,57.89,0,0,0,12.33,35.76v-5.91a54.74,54.74,0,0,1,68-80V74.65A58.19,58.19,0,0,0,28.1,128.51Z"/><path d="M113.6,206.37a65.91,65.91,0,0,0,24.58-15.85h0a87.2,87.2,0,0,0,20.39-32,78.25,78.25,0,0,1-94.4,45,26.53,26.53,0,0,0,.65,4.6,82.52,82.52,0,0,0,48.78-1.79Z"/><path d="M60.4,40.46l-8.18,8.18a86.88,86.88,0,0,1,54-4.67,55,55,0,0,0-2.5-5.57A91.83,91.83,0,0,0,60.4,40.46Z"/><path d="M72.05,28.81l-5.66,5.66a96.51,96.51,0,0,1,34.59-1c-1.08-1.77-2.21-3.47-3.34-5.07a100.92,100.92,0,0,0-25.59.37Z"/><path d="M112.11,216.59l8.15-8.15A86.91,86.91,0,0,1,66.31,213a51,51,0,0,0,2.5,5.58,92,92,0,0,0,43.3-2Z"/><path d="M55.38,52A62.41,62.41,0,0,0,34.91,66l-.54.54a85.71,85.71,0,0,0-21.43,34.83,78.28,78.28,0,0,1,95.45-47.9,26.62,26.62,0,0,0-.67-4.59A82.55,82.55,0,0,0,55.38,52Z"/><path d="M40.43,196.58v-4.73a78.68,78.68,0,0,1-26-32.38A90.16,90.16,0,0,0,40.43,196.58Z"/><path d="M20.16,128.51A66,66,0,0,0,40.43,176.1V171a62.53,62.53,0,0,1,68-101V66.15a66.14,66.14,0,0,0-88.26,62.36Z"/><path d="M100.49,228.22l5.64-5.65a96.21,96.21,0,0,1-34.57.92c1.08,1.77,2.21,3.47,3.34,5.08a100.78,100.78,0,0,0,25.59-.35Z"/><path d="M158.57,98.45a87.41,87.41,0,0,0-20.39-32l-6.05-6V65.1A78.7,78.7,0,0,1,158.57,98.45Z"/><path d="M160.24,128.51a73.82,73.82,0,0,0-28.11-57.95V75a70.47,70.47,0,0,1-68,120.45V199a73.92,73.92,0,0,0,96.11-70.5Z"/><polygon points="83.5 16.8 85.95 14.35 88.4 16.8 83.5 16.8"/><polygon points="88.78 239.98 86.32 242.43 83.87 239.98 88.78 239.98"/><path d="M86.32,111.27a17.24,17.24,0,1,0,17.24,17.24A17.25,17.25,0,0,0,86.32,111.27Zm7.06,19.66-8.16,8.16a3.42,3.42,0,0,1-5.84-2.42V120.35a3.42,3.42,0,0,1,5.84-2.42l8.16,8.16A3.42,3.42,0,0,1,93.38,130.93Z"/><polygon points="210.92 91.21 204.18 91.21 189.87 130.71 198.82 130.71 207.55 106.79 216.17 130.71 225.24 130.71 210.92 91.21"/><path d="M241.72,130.71H228.4V91.21h13.32a19.75,19.75,0,0,1,0,39.5Zm-4.86-8.45h4.86a11.3,11.3,0,0,0,0-22.6h-4.86Z"/><path d="M331.16,107.14l-.53-2.79-16.76,8.9h0L326.2,111l-.49,2.62a14,14,0,1,1-5.66-14.24l3.79-4.07a19.62,19.62,0,1,0,7.7,15.64A17.38,17.38,0,0,0,331.16,107.14Z"/><path d="M358.52,118.08a13.35,13.35,0,0,0-5-25.71H340.86v38h5.28V119.16h4.71l6.94,11.31h6l-7.32-11.57Zm-12.38-4.31V97.65h7.36a8.06,8.06,0,1,1,0,16.12Z"/><path d="M394.1,91.21a19.63,19.63,0,1,0,19.69,19.69A19.65,19.65,0,0,0,394.1,91.21Zm0,33.75a14.13,14.13,0,1,1,14.18-14.06A14.08,14.08,0,0,1,394.1,125Z"/><path d="M452.53,92.43h-5.28v23.13a9.64,9.64,0,1,1-19.27,0V92.43h-5.27v23.13a14.91,14.91,0,1,0,29.82,0Z"/><path d="M474.25,92.43H461.62v38h5.27V119.1h7.36a13.34,13.34,0,1,0,0-26.67Zm0,21.4h-7.36V97.71h7.36a8.06,8.06,0,1,1,0,16.12Z"/><path d="M205.18,165.24v-19.6h3.48v19.6Z"/><path d="M225.59,165.5l-9.51-12.4v12.15h-3.34V145.64h1.67l9.26,11.82V145.64H227V165.5Z"/><path d="M234.5,148.73v4.59h6.89v3H234.5v9H231v-19.6h12.91v3.09Z"/><path d="M247.08,165.24v-19.6h3.48v19.6Z"/><path d="M267.49,165.5,258,153.1v12.15h-3.34V145.64h1.67l9.25,11.82V145.64h3.35V165.5Z"/><path d="M273,165.24v-19.6h3.48v19.6Z"/><path d="M288.52,148.73v16.51H285V148.73h-6.23v-3.09H295v3.09Z"/><path d="M300.79,148.73v4.59h6.47v3h-6.47v5.88h8.88v3.09H297.31v-19.6h12.51v3.09Z"/><path d="M321.21,165.24v-19.6h3.48v19.6Z"/><path d="M341.63,165.5l-9.51-12.4v12.15h-3.35V145.64h1.67l9.26,11.82V145.64h3.35V165.5Z"/><path d="M359.91,165.5l-9.51-12.4v12.15h-3.34V145.64h1.67L358,157.46V145.64h3.34V165.5Z"/><path d="M364.41,155.27a11,11,0,0,1,2.29-7.08,7.44,7.44,0,0,1,6.14-2.9,8,8,0,0,1,6.46,2.62q2.24,2.63,2.23,7.36a11.37,11.37,0,0,1-2.33,7.52,8.2,8.2,0,0,1-6.63,2.78,7.15,7.15,0,0,1-6.05-2.76A12.09,12.09,0,0,1,364.41,155.27Zm3.61,0a10.2,10.2,0,0,0,1.16,5.32,3.75,3.75,0,0,0,3.39,1.89,4.66,4.66,0,0,0,4-1.85,8.93,8.93,0,0,0,1.37-5.36q0-6.89-5.08-6.89a4,4,0,0,0-3.57,1.87A8.9,8.9,0,0,0,368,155.27Z"/><path d="M391.91,165.5H390l-7.33-19.86h3.83L391,158.88l4.79-13.24h3.74Z"/><path d="M411,165.24l-1.43-4H402.9l-1.37,4h-3.86l7.81-19.87H407l7.88,19.87Zm-4.8-13.88-2.35,7.24h4.7Z"/><path d="M422.33,148.73v16.51h-3.47V148.73h-6.24v-3.09h16.23v3.09Z"/><path d="M431.19,165.24v-19.6h3.48v19.6Z"/><path d="M437.81,155.27a11,11,0,0,1,2.3-7.08,7.41,7.41,0,0,1,6.13-2.9,8,8,0,0,1,6.46,2.62q2.24,2.63,2.23,7.36a11.31,11.31,0,0,1-2.33,7.52,8.2,8.2,0,0,1-6.63,2.78,7.15,7.15,0,0,1-6.05-2.76A12.09,12.09,0,0,1,437.81,155.27Zm3.61,0a10.09,10.09,0,0,0,1.17,5.32,3.73,3.73,0,0,0,3.38,1.89,4.65,4.65,0,0,0,4-1.85,8.93,8.93,0,0,0,1.37-5.36q0-6.89-5.08-6.89a4,4,0,0,0-3.57,1.87A8.9,8.9,0,0,0,441.42,155.27Z"/><path d="M470.87,165.5l-9.51-12.4v12.15H458V145.64h1.67l9.26,11.82V145.64h3.34V165.5Z"/></svg>