<svg xmlns="http://www.w3.org/2000/svg" width="126" height="126" viewBox="0 0 126 126"><g transform="translate(-897 -884)"><g transform="translate(897 884)" fill="none" stroke="#fff" stroke-width="1.5"><circle cx="63" cy="63" r="63" stroke="none"/><circle cx="63" cy="63" r="62.25" fill="none"/></g><g transform="translate(938.876 929.619)"><path d="M10.592,21.842a1.6,1.6,0,0,1,2.259,0L21.3,30.289l8.445-8.448A1.6,1.6,0,1,1,32,24.1l-9.574,9.574a1.6,1.6,0,0,1-2.259,0L10.592,24.1a1.6,1.6,0,0,1,0-2.259Z" transform="translate(0 14.64)" fill="#fff" fill-rule="evenodd"/><path d="M18.471,5.625c.881,0,1.6,1.325,1.6,2.96V61.873c0,1.635-.714,2.96-1.6,2.96s-1.6-1.325-1.6-2.96V8.585C16.875,6.95,17.589,5.625,18.471,5.625Z" transform="translate(2.825 -19.244)" fill="#fff" fill-rule="evenodd"/></g></g></svg>