<svg xmlns="http://www.w3.org/2000/svg" width="1700.778" height="1238.907" viewBox="0 0 1700.778 1238.907"><g transform="translate(-86.611 -3801.092)"><g transform="matrix(0.719, 0.695, -0.695, 0.719, 1999.394, 1733.917)" opacity="0.35"><circle cx="4" cy="4" r="4" transform="translate(125 2753)" fill="#fdc800"/><circle cx="4" cy="4" r="4" transform="translate(145 2753)" fill="#fdc800"/><circle cx="4" cy="4" r="4" transform="translate(166 2753)" fill="#fdc800"/><circle cx="4" cy="4" r="4" transform="translate(186 2753)" fill="#fdc800"/><circle cx="4" cy="4" r="4" transform="translate(207 2753)" fill="#fdc800"/><circle cx="4" cy="4" r="4" transform="translate(227 2753)" fill="#fdc800"/><circle cx="4" cy="4" r="4" transform="translate(247 2753)" fill="#fdc800"/><circle cx="4" cy="4" r="4" transform="translate(268 2753)" fill="#fdc800"/><circle cx="4" cy="4" r="4" transform="translate(125 2773)" fill="#fdc800"/><circle cx="4" cy="4" r="4" transform="translate(145 2773)" fill="#fdc800"/><circle cx="4" cy="4" r="4" transform="translate(166 2773)" fill="#fdc800"/><circle cx="4" cy="4" r="4" transform="translate(186 2773)" fill="#fdc800"/><circle cx="4" cy="4" r="4" transform="translate(207 2773)" fill="#fdc800"/><circle cx="4" cy="4" r="4" transform="translate(227 2773)" fill="#fdc800"/><circle cx="4" cy="4" r="4" transform="translate(247 2773)" fill="#fdc800"/><circle cx="4" cy="4" r="4" transform="translate(268 2773)" fill="#fdc800"/><circle cx="4" cy="4" r="4" transform="translate(125 2794)" fill="#fdc800"/><circle cx="4" cy="4" r="4" transform="translate(145 2794)" fill="#fdc800"/><circle cx="4" cy="4" r="4" transform="translate(166 2794)" fill="#fdc800"/><circle cx="4" cy="4" r="4" transform="translate(186 2794)" fill="#fdc800"/><circle cx="4" cy="4" r="4" transform="translate(207 2794)" fill="#fdc800"/><circle cx="4" cy="4" r="4" transform="translate(227 2794)" fill="#fdc800"/><circle cx="4" cy="4" r="4" transform="translate(247 2794)" fill="#fdc800"/><circle cx="4" cy="4" r="4" transform="translate(268 2794)" fill="#fdc800"/><circle cx="4" cy="4" r="4" transform="translate(125 2814)" fill="#fdc800"/><circle cx="4" cy="4" r="4" transform="translate(145 2814)" fill="#fdc800"/><circle cx="4" cy="4" r="4" transform="translate(166 2814)" fill="#fdc800"/><circle cx="4" cy="4" r="4" transform="translate(186 2814)" fill="#fdc800"/><circle cx="4" cy="4" r="4" transform="translate(207 2814)" fill="#fdc800"/><circle cx="4" cy="4" r="4" transform="translate(227 2814)" fill="#fdc800"/><circle cx="4" cy="4" r="4" transform="translate(247 2814)" fill="#fdc800"/><circle cx="4" cy="4" r="4" transform="translate(268 2814)" fill="#fdc800"/><circle cx="4" cy="4" r="4" transform="translate(125 2835)" fill="#fdc800"/><circle cx="4" cy="4" r="4" transform="translate(145 2835)" fill="#fdc800"/><circle cx="4" cy="4" r="4" transform="translate(166 2835)" fill="#fdc800"/><circle cx="4" cy="4" r="4" transform="translate(186 2835)" fill="#fdc800"/><circle cx="4" cy="4" r="4" transform="translate(207 2835)" fill="#fdc800"/><circle cx="4" cy="4" r="4" transform="translate(227 2835)" fill="#fdc800"/><circle cx="4" cy="4" r="4" transform="translate(247 2835)" fill="#fdc800"/><circle cx="4" cy="4" r="4" transform="translate(268 2835)" fill="#fdc800"/><circle cx="4" cy="4" r="4" transform="translate(125 2855)" fill="#fdc800"/><circle cx="4" cy="4" r="4" transform="translate(145 2855)" fill="#fdc800"/><circle cx="4" cy="4" r="4" transform="translate(166 2855)" fill="#fdc800"/><circle cx="4" cy="4" r="4" transform="translate(186 2855)" fill="#fdc800"/><circle cx="4" cy="4" r="4" transform="translate(207 2855)" fill="#fdc800"/><circle cx="4" cy="4" r="4" transform="translate(227 2855)" fill="#fdc800"/><circle cx="4" cy="4" r="4" transform="translate(247 2855)" fill="#fdc800"/><circle cx="4" cy="4" r="4" transform="translate(268 2855)" fill="#fdc800"/><circle cx="4" cy="4" r="4" transform="translate(125 2875)" fill="#fdc800"/><circle cx="4" cy="4" r="4" transform="translate(145 2875)" fill="#fdc800"/><circle cx="4" cy="4" r="4" transform="translate(166 2875)" fill="#fdc800"/><circle cx="4" cy="4" r="4" transform="translate(186 2875)" fill="#fdc800"/><circle cx="4" cy="4" r="4" transform="translate(207 2875)" fill="#fdc800"/><circle cx="4" cy="4" r="4" transform="translate(227 2875)" fill="#fdc800"/><circle cx="4" cy="4" r="4" transform="translate(247 2875)" fill="#fdc800"/><circle cx="4" cy="4" r="4" transform="translate(268 2875)" fill="#fdc800"/></g><g transform="matrix(0.719, 0.695, -0.695, 0.719, 2570.782, 2129.621)" opacity="0.35"><circle cx="4" cy="4" r="4" transform="translate(125 2753)" fill="#002147"/><circle cx="4" cy="4" r="4" transform="translate(145 2753)" fill="#002147"/><circle cx="4" cy="4" r="4" transform="translate(166 2753)" fill="#002147"/><circle cx="4" cy="4" r="4" transform="translate(186 2753)" fill="#002147"/><circle cx="4" cy="4" r="4" transform="translate(207 2753)" fill="#002147"/><circle cx="4" cy="4" r="4" transform="translate(227 2753)" fill="#002147"/><circle cx="4" cy="4" r="4" transform="translate(247 2753)" fill="#002147"/><circle cx="4" cy="4" r="4" transform="translate(268 2753)" fill="#002147"/><circle cx="4" cy="4" r="4" transform="translate(125 2773)" fill="#002147"/><circle cx="4" cy="4" r="4" transform="translate(145 2773)" fill="#002147"/><circle cx="4" cy="4" r="4" transform="translate(166 2773)" fill="#002147"/><circle cx="4" cy="4" r="4" transform="translate(186 2773)" fill="#002147"/><circle cx="4" cy="4" r="4" transform="translate(207 2773)" fill="#002147"/><circle cx="4" cy="4" r="4" transform="translate(227 2773)" fill="#002147"/><circle cx="4" cy="4" r="4" transform="translate(247 2773)" fill="#002147"/><circle cx="4" cy="4" r="4" transform="translate(268 2773)" fill="#002147"/><circle cx="4" cy="4" r="4" transform="translate(125 2794)" fill="#002147"/><circle cx="4" cy="4" r="4" transform="translate(145 2794)" fill="#002147"/><circle cx="4" cy="4" r="4" transform="translate(166 2794)" fill="#002147"/><circle cx="4" cy="4" r="4" transform="translate(186 2794)" fill="#002147"/><circle cx="4" cy="4" r="4" transform="translate(207 2794)" fill="#002147"/><circle cx="4" cy="4" r="4" transform="translate(227 2794)" fill="#002147"/><circle cx="4" cy="4" r="4" transform="translate(247 2794)" fill="#002147"/><circle cx="4" cy="4" r="4" transform="translate(268 2794)" fill="#002147"/><circle cx="4" cy="4" r="4" transform="translate(125 2814)" fill="#002147"/><circle cx="4" cy="4" r="4" transform="translate(145 2814)" fill="#002147"/><circle cx="4" cy="4" r="4" transform="translate(166 2814)" fill="#002147"/><circle cx="4" cy="4" r="4" transform="translate(186 2814)" fill="#002147"/><circle cx="4" cy="4" r="4" transform="translate(207 2814)" fill="#002147"/><circle cx="4" cy="4" r="4" transform="translate(227 2814)" fill="#002147"/><circle cx="4" cy="4" r="4" transform="translate(247 2814)" fill="#002147"/><circle cx="4" cy="4" r="4" transform="translate(268 2814)" fill="#002147"/><circle cx="4" cy="4" r="4" transform="translate(125 2835)" fill="#002147"/><circle cx="4" cy="4" r="4" transform="translate(145 2835)" fill="#002147"/><circle cx="4" cy="4" r="4" transform="translate(166 2835)" fill="#002147"/><circle cx="4" cy="4" r="4" transform="translate(186 2835)" fill="#002147"/><circle cx="4" cy="4" r="4" transform="translate(207 2835)" fill="#002147"/><circle cx="4" cy="4" r="4" transform="translate(227 2835)" fill="#002147"/><circle cx="4" cy="4" r="4" transform="translate(247 2835)" fill="#002147"/><circle cx="4" cy="4" r="4" transform="translate(268 2835)" fill="#002147"/><circle cx="4" cy="4" r="4" transform="translate(125 2855)" fill="#002147"/><circle cx="4" cy="4" r="4" transform="translate(145 2855)" fill="#002147"/><circle cx="4" cy="4" r="4" transform="translate(166 2855)" fill="#002147"/><circle cx="4" cy="4" r="4" transform="translate(186 2855)" fill="#002147"/><circle cx="4" cy="4" r="4" transform="translate(207 2855)" fill="#002147"/><circle cx="4" cy="4" r="4" transform="translate(227 2855)" fill="#002147"/><circle cx="4" cy="4" r="4" transform="translate(247 2855)" fill="#002147"/><circle cx="4" cy="4" r="4" transform="translate(268 2855)" fill="#002147"/><circle cx="4" cy="4" r="4" transform="translate(125 2875)" fill="#002147"/><circle cx="4" cy="4" r="4" transform="translate(145 2875)" fill="#002147"/><circle cx="4" cy="4" r="4" transform="translate(166 2875)" fill="#002147"/><circle cx="4" cy="4" r="4" transform="translate(186 2875)" fill="#002147"/><circle cx="4" cy="4" r="4" transform="translate(207 2875)" fill="#002147"/><circle cx="4" cy="4" r="4" transform="translate(227 2875)" fill="#002147"/><circle cx="4" cy="4" r="4" transform="translate(247 2875)" fill="#002147"/><circle cx="4" cy="4" r="4" transform="translate(268 2875)" fill="#002147"/></g><g transform="matrix(0.719, 0.695, -0.695, 0.719, 3501.245, 1994.417)" opacity="0.35"><circle cx="4" cy="4" r="4" transform="translate(125 2753)" fill="#002147"/><circle cx="4" cy="4" r="4" transform="translate(145 2753)" fill="#002147"/><circle cx="4" cy="4" r="4" transform="translate(166 2753)" fill="#002147"/><circle cx="4" cy="4" r="4" transform="translate(186 2753)" fill="#002147"/><circle cx="4" cy="4" r="4" transform="translate(207 2753)" fill="#002147"/><circle cx="4" cy="4" r="4" transform="translate(227 2753)" fill="#002147"/><circle cx="4" cy="4" r="4" transform="translate(247 2753)" fill="#002147"/><circle cx="4" cy="4" r="4" transform="translate(268 2753)" fill="#002147"/><circle cx="4" cy="4" r="4" transform="translate(125 2773)" fill="#002147"/><circle cx="4" cy="4" r="4" transform="translate(145 2773)" fill="#002147"/><circle cx="4" cy="4" r="4" transform="translate(166 2773)" fill="#002147"/><circle cx="4" cy="4" r="4" transform="translate(186 2773)" fill="#002147"/><circle cx="4" cy="4" r="4" transform="translate(207 2773)" fill="#002147"/><circle cx="4" cy="4" r="4" transform="translate(227 2773)" fill="#002147"/><circle cx="4" cy="4" r="4" transform="translate(247 2773)" fill="#002147"/><circle cx="4" cy="4" r="4" transform="translate(268 2773)" fill="#002147"/><circle cx="4" cy="4" r="4" transform="translate(125 2794)" fill="#002147"/><circle cx="4" cy="4" r="4" transform="translate(145 2794)" fill="#002147"/><circle cx="4" cy="4" r="4" transform="translate(166 2794)" fill="#002147"/><circle cx="4" cy="4" r="4" transform="translate(186 2794)" fill="#002147"/><circle cx="4" cy="4" r="4" transform="translate(207 2794)" fill="#002147"/><circle cx="4" cy="4" r="4" transform="translate(227 2794)" fill="#002147"/><circle cx="4" cy="4" r="4" transform="translate(247 2794)" fill="#002147"/><circle cx="4" cy="4" r="4" transform="translate(268 2794)" fill="#002147"/><circle cx="4" cy="4" r="4" transform="translate(125 2814)" fill="#002147"/><circle cx="4" cy="4" r="4" transform="translate(145 2814)" fill="#002147"/><circle cx="4" cy="4" r="4" transform="translate(166 2814)" fill="#002147"/><circle cx="4" cy="4" r="4" transform="translate(186 2814)" fill="#002147"/><circle cx="4" cy="4" r="4" transform="translate(207 2814)" fill="#002147"/><circle cx="4" cy="4" r="4" transform="translate(227 2814)" fill="#002147"/><circle cx="4" cy="4" r="4" transform="translate(247 2814)" fill="#002147"/><circle cx="4" cy="4" r="4" transform="translate(268 2814)" fill="#002147"/><circle cx="4" cy="4" r="4" transform="translate(125 2835)" fill="#002147"/><circle cx="4" cy="4" r="4" transform="translate(145 2835)" fill="#002147"/><circle cx="4" cy="4" r="4" transform="translate(166 2835)" fill="#002147"/><circle cx="4" cy="4" r="4" transform="translate(186 2835)" fill="#002147"/><circle cx="4" cy="4" r="4" transform="translate(207 2835)" fill="#002147"/><circle cx="4" cy="4" r="4" transform="translate(227 2835)" fill="#002147"/><circle cx="4" cy="4" r="4" transform="translate(247 2835)" fill="#002147"/><circle cx="4" cy="4" r="4" transform="translate(268 2835)" fill="#002147"/><circle cx="4" cy="4" r="4" transform="translate(125 2855)" fill="#002147"/><circle cx="4" cy="4" r="4" transform="translate(145 2855)" fill="#002147"/><circle cx="4" cy="4" r="4" transform="translate(166 2855)" fill="#002147"/><circle cx="4" cy="4" r="4" transform="translate(186 2855)" fill="#002147"/><circle cx="4" cy="4" r="4" transform="translate(207 2855)" fill="#002147"/><circle cx="4" cy="4" r="4" transform="translate(227 2855)" fill="#002147"/><circle cx="4" cy="4" r="4" transform="translate(247 2855)" fill="#002147"/><circle cx="4" cy="4" r="4" transform="translate(268 2855)" fill="#002147"/><circle cx="4" cy="4" r="4" transform="translate(125 2875)" fill="#002147"/><circle cx="4" cy="4" r="4" transform="translate(145 2875)" fill="#002147"/><circle cx="4" cy="4" r="4" transform="translate(166 2875)" fill="#002147"/><circle cx="4" cy="4" r="4" transform="translate(186 2875)" fill="#002147"/><circle cx="4" cy="4" r="4" transform="translate(207 2875)" fill="#002147"/><circle cx="4" cy="4" r="4" transform="translate(227 2875)" fill="#002147"/><circle cx="4" cy="4" r="4" transform="translate(247 2875)" fill="#002147"/><circle cx="4" cy="4" r="4" transform="translate(268 2875)" fill="#002147"/></g><g transform="matrix(0.719, 0.695, -0.695, 0.719, 3401.782, 2774.417)" opacity="0.35"><circle cx="4" cy="4" r="4" transform="translate(125 2753)" fill="#002147"/><circle cx="4" cy="4" r="4" transform="translate(145 2753)" fill="#002147"/><circle cx="4" cy="4" r="4" transform="translate(166 2753)" fill="#002147"/><circle cx="4" cy="4" r="4" transform="translate(186 2753)" fill="#002147"/><circle cx="4" cy="4" r="4" transform="translate(207 2753)" fill="#002147"/><circle cx="4" cy="4" r="4" transform="translate(227 2753)" fill="#002147"/><circle cx="4" cy="4" r="4" transform="translate(247 2753)" fill="#002147"/><circle cx="4" cy="4" r="4" transform="translate(268 2753)" fill="#002147"/><circle cx="4" cy="4" r="4" transform="translate(125 2773)" fill="#002147"/><circle cx="4" cy="4" r="4" transform="translate(145 2773)" fill="#002147"/><circle cx="4" cy="4" r="4" transform="translate(166 2773)" fill="#002147"/><circle cx="4" cy="4" r="4" transform="translate(186 2773)" fill="#002147"/><circle cx="4" cy="4" r="4" transform="translate(207 2773)" fill="#002147"/><circle cx="4" cy="4" r="4" transform="translate(227 2773)" fill="#002147"/><circle cx="4" cy="4" r="4" transform="translate(247 2773)" fill="#002147"/><circle cx="4" cy="4" r="4" transform="translate(268 2773)" fill="#002147"/><circle cx="4" cy="4" r="4" transform="translate(125 2794)" fill="#002147"/><circle cx="4" cy="4" r="4" transform="translate(145 2794)" fill="#002147"/><circle cx="4" cy="4" r="4" transform="translate(166 2794)" fill="#002147"/><circle cx="4" cy="4" r="4" transform="translate(186 2794)" fill="#002147"/><circle cx="4" cy="4" r="4" transform="translate(207 2794)" fill="#002147"/><circle cx="4" cy="4" r="4" transform="translate(227 2794)" fill="#002147"/><circle cx="4" cy="4" r="4" transform="translate(247 2794)" fill="#002147"/><circle cx="4" cy="4" r="4" transform="translate(268 2794)" fill="#002147"/><circle cx="4" cy="4" r="4" transform="translate(125 2814)" fill="#002147"/><circle cx="4" cy="4" r="4" transform="translate(145 2814)" fill="#002147"/><circle cx="4" cy="4" r="4" transform="translate(166 2814)" fill="#002147"/><circle cx="4" cy="4" r="4" transform="translate(186 2814)" fill="#002147"/><circle cx="4" cy="4" r="4" transform="translate(207 2814)" fill="#002147"/><circle cx="4" cy="4" r="4" transform="translate(227 2814)" fill="#002147"/><circle cx="4" cy="4" r="4" transform="translate(247 2814)" fill="#002147"/><circle cx="4" cy="4" r="4" transform="translate(268 2814)" fill="#002147"/><circle cx="4" cy="4" r="4" transform="translate(125 2835)" fill="#002147"/><circle cx="4" cy="4" r="4" transform="translate(145 2835)" fill="#002147"/><circle cx="4" cy="4" r="4" transform="translate(166 2835)" fill="#002147"/><circle cx="4" cy="4" r="4" transform="translate(186 2835)" fill="#002147"/><circle cx="4" cy="4" r="4" transform="translate(207 2835)" fill="#002147"/><circle cx="4" cy="4" r="4" transform="translate(227 2835)" fill="#002147"/><circle cx="4" cy="4" r="4" transform="translate(247 2835)" fill="#002147"/><circle cx="4" cy="4" r="4" transform="translate(268 2835)" fill="#002147"/><circle cx="4" cy="4" r="4" transform="translate(125 2855)" fill="#002147"/><circle cx="4" cy="4" r="4" transform="translate(145 2855)" fill="#002147"/><circle cx="4" cy="4" r="4" transform="translate(166 2855)" fill="#002147"/><circle cx="4" cy="4" r="4" transform="translate(186 2855)" fill="#002147"/><circle cx="4" cy="4" r="4" transform="translate(207 2855)" fill="#002147"/><circle cx="4" cy="4" r="4" transform="translate(227 2855)" fill="#002147"/><circle cx="4" cy="4" r="4" transform="translate(247 2855)" fill="#002147"/><circle cx="4" cy="4" r="4" transform="translate(268 2855)" fill="#002147"/><circle cx="4" cy="4" r="4" transform="translate(125 2875)" fill="#002147"/><circle cx="4" cy="4" r="4" transform="translate(145 2875)" fill="#002147"/><circle cx="4" cy="4" r="4" transform="translate(166 2875)" fill="#002147"/><circle cx="4" cy="4" r="4" transform="translate(186 2875)" fill="#002147"/><circle cx="4" cy="4" r="4" transform="translate(207 2875)" fill="#002147"/><circle cx="4" cy="4" r="4" transform="translate(227 2875)" fill="#002147"/><circle cx="4" cy="4" r="4" transform="translate(247 2875)" fill="#002147"/><circle cx="4" cy="4" r="4" transform="translate(268 2875)" fill="#002147"/></g><g transform="matrix(0.719, 0.695, -0.695, 0.719, 2098.856, 2675.214)" opacity="0.35"><circle cx="4" cy="4" r="4" transform="translate(125 2753)" fill="#002147"/><circle cx="4" cy="4" r="4" transform="translate(145 2753)" fill="#002147"/><circle cx="4" cy="4" r="4" transform="translate(166 2753)" fill="#002147"/><circle cx="4" cy="4" r="4" transform="translate(186 2753)" fill="#002147"/><circle cx="4" cy="4" r="4" transform="translate(207 2753)" fill="#002147"/><circle cx="4" cy="4" r="4" transform="translate(227 2753)" fill="#002147"/><circle cx="4" cy="4" r="4" transform="translate(247 2753)" fill="#002147"/><circle cx="4" cy="4" r="4" transform="translate(268 2753)" fill="#002147"/><circle cx="4" cy="4" r="4" transform="translate(125 2773)" fill="#002147"/><circle cx="4" cy="4" r="4" transform="translate(145 2773)" fill="#002147"/><circle cx="4" cy="4" r="4" transform="translate(166 2773)" fill="#002147"/><circle cx="4" cy="4" r="4" transform="translate(186 2773)" fill="#002147"/><circle cx="4" cy="4" r="4" transform="translate(207 2773)" fill="#002147"/><circle cx="4" cy="4" r="4" transform="translate(227 2773)" fill="#002147"/><circle cx="4" cy="4" r="4" transform="translate(247 2773)" fill="#002147"/><circle cx="4" cy="4" r="4" transform="translate(268 2773)" fill="#002147"/><circle cx="4" cy="4" r="4" transform="translate(125 2794)" fill="#002147"/><circle cx="4" cy="4" r="4" transform="translate(145 2794)" fill="#002147"/><circle cx="4" cy="4" r="4" transform="translate(166 2794)" fill="#002147"/><circle cx="4" cy="4" r="4" transform="translate(186 2794)" fill="#002147"/><circle cx="4" cy="4" r="4" transform="translate(207 2794)" fill="#002147"/><circle cx="4" cy="4" r="4" transform="translate(227 2794)" fill="#002147"/><circle cx="4" cy="4" r="4" transform="translate(247 2794)" fill="#002147"/><circle cx="4" cy="4" r="4" transform="translate(268 2794)" fill="#002147"/><circle cx="4" cy="4" r="4" transform="translate(125 2814)" fill="#002147"/><circle cx="4" cy="4" r="4" transform="translate(145 2814)" fill="#002147"/><circle cx="4" cy="4" r="4" transform="translate(166 2814)" fill="#002147"/><circle cx="4" cy="4" r="4" transform="translate(186 2814)" fill="#002147"/><circle cx="4" cy="4" r="4" transform="translate(207 2814)" fill="#002147"/><circle cx="4" cy="4" r="4" transform="translate(227 2814)" fill="#002147"/><circle cx="4" cy="4" r="4" transform="translate(247 2814)" fill="#002147"/><circle cx="4" cy="4" r="4" transform="translate(268 2814)" fill="#002147"/><circle cx="4" cy="4" r="4" transform="translate(125 2835)" fill="#002147"/><circle cx="4" cy="4" r="4" transform="translate(145 2835)" fill="#002147"/><circle cx="4" cy="4" r="4" transform="translate(166 2835)" fill="#002147"/><circle cx="4" cy="4" r="4" transform="translate(186 2835)" fill="#002147"/><circle cx="4" cy="4" r="4" transform="translate(207 2835)" fill="#002147"/><circle cx="4" cy="4" r="4" transform="translate(227 2835)" fill="#002147"/><circle cx="4" cy="4" r="4" transform="translate(247 2835)" fill="#002147"/><circle cx="4" cy="4" r="4" transform="translate(268 2835)" fill="#002147"/><circle cx="4" cy="4" r="4" transform="translate(125 2855)" fill="#002147"/><circle cx="4" cy="4" r="4" transform="translate(145 2855)" fill="#002147"/><circle cx="4" cy="4" r="4" transform="translate(166 2855)" fill="#002147"/><circle cx="4" cy="4" r="4" transform="translate(186 2855)" fill="#002147"/><circle cx="4" cy="4" r="4" transform="translate(207 2855)" fill="#002147"/><circle cx="4" cy="4" r="4" transform="translate(227 2855)" fill="#002147"/><circle cx="4" cy="4" r="4" transform="translate(247 2855)" fill="#002147"/><circle cx="4" cy="4" r="4" transform="translate(268 2855)" fill="#002147"/><circle cx="4" cy="4" r="4" transform="translate(125 2875)" fill="#002147"/><circle cx="4" cy="4" r="4" transform="translate(145 2875)" fill="#002147"/><circle cx="4" cy="4" r="4" transform="translate(166 2875)" fill="#002147"/><circle cx="4" cy="4" r="4" transform="translate(186 2875)" fill="#002147"/><circle cx="4" cy="4" r="4" transform="translate(207 2875)" fill="#002147"/><circle cx="4" cy="4" r="4" transform="translate(227 2875)" fill="#002147"/><circle cx="4" cy="4" r="4" transform="translate(247 2875)" fill="#002147"/><circle cx="4" cy="4" r="4" transform="translate(268 2875)" fill="#002147"/></g></g></svg>