<svg xmlns="http://www.w3.org/2000/svg" xmlns:xlink="http://www.w3.org/1999/xlink" width="1816" height="159" viewBox="0 0 1816 159">
  <defs>
    <linearGradient id="linear-gradient" x1="0.5" x2="0.5" y2="1" gradientUnits="objectBoundingBox">
      <stop offset="0" stop-color="#00bdd6"/>
      <stop offset="0.04" stop-color="#00bdd6"/>
      <stop offset="1" stop-color="#dde790"/>
    </linearGradient>
  </defs>
  <g id="Group_798" data-name="Group 798" transform="translate(-94 -1033)">
    <g id="Group_164" data-name="Group 164" transform="translate(2318.859 118)" opacity="0.38">
      <circle id="Ellipse_23" data-name="Ellipse 23" cx="3.5" cy="3.5" r="3.5" transform="translate(-2224.859 915)" fill="url(#linear-gradient)"/>
      <ellipse id="Ellipse_23-2" data-name="Ellipse 23" cx="4" cy="3.5" rx="4" ry="3.5" transform="translate(-2200.859 915)" fill="url(#linear-gradient)"/>
      <circle id="Ellipse_23-3" data-name="Ellipse 23" cx="3.5" cy="3.5" r="3.5" transform="translate(-2175.859 915)" fill="url(#linear-gradient)"/>
      <circle id="Ellipse_23-4" data-name="Ellipse 23" cx="3.5" cy="3.5" r="3.5" transform="translate(-2150.859 915)" fill="url(#linear-gradient)"/>
      <circle id="Ellipse_23-5" data-name="Ellipse 23" cx="3.5" cy="3.5" r="3.5" transform="translate(-2126.859 915)" fill="url(#linear-gradient)"/>
      <circle id="Ellipse_23-6" data-name="Ellipse 23" cx="3.5" cy="3.5" r="3.5" transform="translate(-2101.859 915)" fill="url(#linear-gradient)"/>
      <circle id="Ellipse_23-7" data-name="Ellipse 23" cx="3.5" cy="3.5" r="3.5" transform="translate(-2224.859 940)" fill="url(#linear-gradient)"/>
      <ellipse id="Ellipse_23-8" data-name="Ellipse 23" cx="4" cy="3.5" rx="4" ry="3.5" transform="translate(-2200.859 940)" fill="url(#linear-gradient)"/>
      <circle id="Ellipse_23-9" data-name="Ellipse 23" cx="3.5" cy="3.5" r="3.5" transform="translate(-2175.859 940)" fill="url(#linear-gradient)"/>
      <circle id="Ellipse_23-10" data-name="Ellipse 23" cx="3.5" cy="3.5" r="3.5" transform="translate(-2150.859 940)" fill="url(#linear-gradient)"/>
      <circle id="Ellipse_23-11" data-name="Ellipse 23" cx="3.5" cy="3.5" r="3.5" transform="translate(-2126.859 940)" fill="url(#linear-gradient)"/>
      <circle id="Ellipse_23-12" data-name="Ellipse 23" cx="3.5" cy="3.5" r="3.5" transform="translate(-2101.859 940)" fill="url(#linear-gradient)"/>
      <circle id="Ellipse_23-13" data-name="Ellipse 23" cx="3.5" cy="3.5" r="3.5" transform="translate(-2224.859 964)" fill="url(#linear-gradient)"/>
      <ellipse id="Ellipse_23-14" data-name="Ellipse 23" cx="4" cy="3.5" rx="4" ry="3.5" transform="translate(-2200.859 964)" fill="url(#linear-gradient)"/>
      <circle id="Ellipse_23-15" data-name="Ellipse 23" cx="3.5" cy="3.5" r="3.5" transform="translate(-2175.859 964)" fill="url(#linear-gradient)"/>
      <circle id="Ellipse_23-16" data-name="Ellipse 23" cx="3.5" cy="3.5" r="3.5" transform="translate(-2150.859 964)" fill="url(#linear-gradient)"/>
      <circle id="Ellipse_23-17" data-name="Ellipse 23" cx="3.5" cy="3.5" r="3.5" transform="translate(-2126.859 964)" fill="url(#linear-gradient)"/>
      <circle id="Ellipse_23-18" data-name="Ellipse 23" cx="3.5" cy="3.5" r="3.5" transform="translate(-2101.859 964)" fill="url(#linear-gradient)"/>
      <circle id="Ellipse_23-19" data-name="Ellipse 23" cx="3.5" cy="3.5" r="3.5" transform="translate(-2224.859 989)" fill="url(#linear-gradient)"/>
      <ellipse id="Ellipse_23-20" data-name="Ellipse 23" cx="4" cy="3.5" rx="4" ry="3.5" transform="translate(-2200.859 989)" fill="url(#linear-gradient)"/>
      <circle id="Ellipse_23-21" data-name="Ellipse 23" cx="3.5" cy="3.5" r="3.5" transform="translate(-2175.859 989)" fill="url(#linear-gradient)"/>
      <circle id="Ellipse_23-22" data-name="Ellipse 23" cx="3.5" cy="3.5" r="3.5" transform="translate(-2150.859 989)" fill="url(#linear-gradient)"/>
      <circle id="Ellipse_23-23" data-name="Ellipse 23" cx="3.5" cy="3.5" r="3.5" transform="translate(-2126.859 989)" fill="url(#linear-gradient)"/>
      <circle id="Ellipse_23-24" data-name="Ellipse 23" cx="3.5" cy="3.5" r="3.5" transform="translate(-2101.859 989)" fill="url(#linear-gradient)"/>
      <ellipse id="Ellipse_23-25" data-name="Ellipse 23" cx="3.5" cy="4" rx="3.5" ry="4" transform="translate(-2224.859 1013)" fill="url(#linear-gradient)"/>
      <circle id="Ellipse_23-26" data-name="Ellipse 23" cx="4" cy="4" r="4" transform="translate(-2200.859 1013)" fill="url(#linear-gradient)"/>
      <ellipse id="Ellipse_23-27" data-name="Ellipse 23" cx="3.5" cy="4" rx="3.5" ry="4" transform="translate(-2175.859 1013)" fill="url(#linear-gradient)"/>
      <ellipse id="Ellipse_23-28" data-name="Ellipse 23" cx="3.5" cy="4" rx="3.5" ry="4" transform="translate(-2150.859 1013)" fill="url(#linear-gradient)"/>
      <ellipse id="Ellipse_23-29" data-name="Ellipse 23" cx="3.5" cy="4" rx="3.5" ry="4" transform="translate(-2126.859 1013)" fill="url(#linear-gradient)"/>
      <ellipse id="Ellipse_23-30" data-name="Ellipse 23" cx="3.5" cy="4" rx="3.5" ry="4" transform="translate(-2101.859 1013)" fill="url(#linear-gradient)"/>
    </g>
    <g id="Group_217" data-name="Group 217" transform="translate(4004.859 171)" opacity="0.38">
      <circle id="Ellipse_23-31" data-name="Ellipse 23" cx="3.5" cy="3.5" r="3.5" transform="translate(-2224.859 915)" fill="url(#linear-gradient)"/>
      <ellipse id="Ellipse_23-32" data-name="Ellipse 23" cx="4" cy="3.5" rx="4" ry="3.5" transform="translate(-2200.859 915)" fill="url(#linear-gradient)"/>
      <circle id="Ellipse_23-33" data-name="Ellipse 23" cx="3.5" cy="3.5" r="3.5" transform="translate(-2175.859 915)" fill="url(#linear-gradient)"/>
      <circle id="Ellipse_23-34" data-name="Ellipse 23" cx="3.5" cy="3.5" r="3.5" transform="translate(-2150.859 915)" fill="url(#linear-gradient)"/>
      <circle id="Ellipse_23-35" data-name="Ellipse 23" cx="3.5" cy="3.5" r="3.5" transform="translate(-2126.859 915)" fill="url(#linear-gradient)"/>
      <circle id="Ellipse_23-36" data-name="Ellipse 23" cx="3.5" cy="3.5" r="3.5" transform="translate(-2101.859 915)" fill="url(#linear-gradient)"/>
      <circle id="Ellipse_23-37" data-name="Ellipse 23" cx="3.5" cy="3.5" r="3.5" transform="translate(-2224.859 940)" fill="url(#linear-gradient)"/>
      <ellipse id="Ellipse_23-38" data-name="Ellipse 23" cx="4" cy="3.5" rx="4" ry="3.5" transform="translate(-2200.859 940)" fill="url(#linear-gradient)"/>
      <circle id="Ellipse_23-39" data-name="Ellipse 23" cx="3.5" cy="3.5" r="3.5" transform="translate(-2175.859 940)" fill="url(#linear-gradient)"/>
      <circle id="Ellipse_23-40" data-name="Ellipse 23" cx="3.5" cy="3.5" r="3.5" transform="translate(-2150.859 940)" fill="url(#linear-gradient)"/>
      <circle id="Ellipse_23-41" data-name="Ellipse 23" cx="3.5" cy="3.5" r="3.5" transform="translate(-2126.859 940)" fill="url(#linear-gradient)"/>
      <circle id="Ellipse_23-42" data-name="Ellipse 23" cx="3.5" cy="3.5" r="3.5" transform="translate(-2101.859 940)" fill="url(#linear-gradient)"/>
      <circle id="Ellipse_23-43" data-name="Ellipse 23" cx="3.5" cy="3.5" r="3.5" transform="translate(-2224.859 964)" fill="url(#linear-gradient)"/>
      <ellipse id="Ellipse_23-44" data-name="Ellipse 23" cx="4" cy="3.5" rx="4" ry="3.5" transform="translate(-2200.859 964)" fill="url(#linear-gradient)"/>
      <circle id="Ellipse_23-45" data-name="Ellipse 23" cx="3.5" cy="3.5" r="3.5" transform="translate(-2175.859 964)" fill="url(#linear-gradient)"/>
      <circle id="Ellipse_23-46" data-name="Ellipse 23" cx="3.5" cy="3.5" r="3.5" transform="translate(-2150.859 964)" fill="url(#linear-gradient)"/>
      <circle id="Ellipse_23-47" data-name="Ellipse 23" cx="3.5" cy="3.5" r="3.5" transform="translate(-2126.859 964)" fill="url(#linear-gradient)"/>
      <circle id="Ellipse_23-48" data-name="Ellipse 23" cx="3.5" cy="3.5" r="3.5" transform="translate(-2101.859 964)" fill="url(#linear-gradient)"/>
      <circle id="Ellipse_23-49" data-name="Ellipse 23" cx="3.5" cy="3.5" r="3.5" transform="translate(-2224.859 989)" fill="url(#linear-gradient)"/>
      <ellipse id="Ellipse_23-50" data-name="Ellipse 23" cx="4" cy="3.5" rx="4" ry="3.5" transform="translate(-2200.859 989)" fill="url(#linear-gradient)"/>
      <circle id="Ellipse_23-51" data-name="Ellipse 23" cx="3.5" cy="3.5" r="3.5" transform="translate(-2175.859 989)" fill="url(#linear-gradient)"/>
      <circle id="Ellipse_23-52" data-name="Ellipse 23" cx="3.5" cy="3.5" r="3.5" transform="translate(-2150.859 989)" fill="url(#linear-gradient)"/>
      <circle id="Ellipse_23-53" data-name="Ellipse 23" cx="3.5" cy="3.5" r="3.5" transform="translate(-2126.859 989)" fill="url(#linear-gradient)"/>
      <circle id="Ellipse_23-54" data-name="Ellipse 23" cx="3.5" cy="3.5" r="3.5" transform="translate(-2101.859 989)" fill="url(#linear-gradient)"/>
      <ellipse id="Ellipse_23-55" data-name="Ellipse 23" cx="3.5" cy="4" rx="3.5" ry="4" transform="translate(-2224.859 1013)" fill="url(#linear-gradient)"/>
      <circle id="Ellipse_23-56" data-name="Ellipse 23" cx="4" cy="4" r="4" transform="translate(-2200.859 1013)" fill="url(#linear-gradient)"/>
      <ellipse id="Ellipse_23-57" data-name="Ellipse 23" cx="3.5" cy="4" rx="3.5" ry="4" transform="translate(-2175.859 1013)" fill="url(#linear-gradient)"/>
      <ellipse id="Ellipse_23-58" data-name="Ellipse 23" cx="3.5" cy="4" rx="3.5" ry="4" transform="translate(-2150.859 1013)" fill="url(#linear-gradient)"/>
      <ellipse id="Ellipse_23-59" data-name="Ellipse 23" cx="3.5" cy="4" rx="3.5" ry="4" transform="translate(-2126.859 1013)" fill="url(#linear-gradient)"/>
      <ellipse id="Ellipse_23-60" data-name="Ellipse 23" cx="3.5" cy="4" rx="3.5" ry="4" transform="translate(-2101.859 1013)" fill="url(#linear-gradient)"/>
    </g>
  </g>
</svg>
