<svg xmlns="http://www.w3.org/2000/svg" width="1394.731" height="1252.407" viewBox="0 0 1394.731 1252.407"><g transform="translate(-318.731 -2355.796)"><g transform="translate(1290 2583)" fill="none" stroke="#002147" stroke-width="20" stroke-dasharray="214" opacity="0.31"><circle cx="95.5" cy="95.5" r="95.5" stroke="none"/><circle cx="95.5" cy="95.5" r="85.5" fill="none"/></g><g transform="matrix(-0.208, -0.978, 0.978, -0.208, 358.442, 3185.269)" fill="none" stroke="#002147" stroke-width="20" stroke-dasharray="214" opacity="0.31"><circle cx="95.5" cy="95.5" r="95.5" stroke="none"/><circle cx="95.5" cy="95.5" r="85.5" fill="none"/></g><g transform="matrix(0.719, 0.695, -0.695, 0.719, 3302.319, 905.621)" opacity="0.35"><circle cx="4" cy="4" r="4" transform="translate(125 2753)" fill="#fdc800"/><circle cx="4" cy="4" r="4" transform="translate(145 2753)" fill="#fdc800"/><circle cx="4" cy="4" r="4" transform="translate(166 2753)" fill="#fdc800"/><circle cx="4" cy="4" r="4" transform="translate(186 2753)" fill="#fdc800"/><circle cx="4" cy="4" r="4" transform="translate(207 2753)" fill="#fdc800"/><circle cx="4" cy="4" r="4" transform="translate(227 2753)" fill="#fdc800"/><circle cx="4" cy="4" r="4" transform="translate(247 2753)" fill="#fdc800"/><circle cx="4" cy="4" r="4" transform="translate(268 2753)" fill="#fdc800"/><circle cx="4" cy="4" r="4" transform="translate(125 2773)" fill="#fdc800"/><circle cx="4" cy="4" r="4" transform="translate(145 2773)" fill="#fdc800"/><circle cx="4" cy="4" r="4" transform="translate(166 2773)" fill="#fdc800"/><circle cx="4" cy="4" r="4" transform="translate(186 2773)" fill="#fdc800"/><circle cx="4" cy="4" r="4" transform="translate(207 2773)" fill="#fdc800"/><circle cx="4" cy="4" r="4" transform="translate(227 2773)" fill="#fdc800"/><circle cx="4" cy="4" r="4" transform="translate(247 2773)" fill="#fdc800"/><circle cx="4" cy="4" r="4" transform="translate(268 2773)" fill="#fdc800"/><circle cx="4" cy="4" r="4" transform="translate(125 2794)" fill="#fdc800"/><circle cx="4" cy="4" r="4" transform="translate(145 2794)" fill="#fdc800"/><circle cx="4" cy="4" r="4" transform="translate(166 2794)" fill="#fdc800"/><circle cx="4" cy="4" r="4" transform="translate(186 2794)" fill="#fdc800"/><circle cx="4" cy="4" r="4" transform="translate(207 2794)" fill="#fdc800"/><circle cx="4" cy="4" r="4" transform="translate(227 2794)" fill="#fdc800"/><circle cx="4" cy="4" r="4" transform="translate(247 2794)" fill="#fdc800"/><circle cx="4" cy="4" r="4" transform="translate(268 2794)" fill="#fdc800"/><circle cx="4" cy="4" r="4" transform="translate(125 2814)" fill="#fdc800"/><circle cx="4" cy="4" r="4" transform="translate(145 2814)" fill="#fdc800"/><circle cx="4" cy="4" r="4" transform="translate(166 2814)" fill="#fdc800"/><circle cx="4" cy="4" r="4" transform="translate(186 2814)" fill="#fdc800"/><circle cx="4" cy="4" r="4" transform="translate(207 2814)" fill="#fdc800"/><circle cx="4" cy="4" r="4" transform="translate(227 2814)" fill="#fdc800"/><circle cx="4" cy="4" r="4" transform="translate(247 2814)" fill="#fdc800"/><circle cx="4" cy="4" r="4" transform="translate(268 2814)" fill="#fdc800"/><circle cx="4" cy="4" r="4" transform="translate(125 2835)" fill="#fdc800"/><circle cx="4" cy="4" r="4" transform="translate(145 2835)" fill="#fdc800"/><circle cx="4" cy="4" r="4" transform="translate(166 2835)" fill="#fdc800"/><circle cx="4" cy="4" r="4" transform="translate(186 2835)" fill="#fdc800"/><circle cx="4" cy="4" r="4" transform="translate(207 2835)" fill="#fdc800"/><circle cx="4" cy="4" r="4" transform="translate(227 2835)" fill="#fdc800"/><circle cx="4" cy="4" r="4" transform="translate(247 2835)" fill="#fdc800"/><circle cx="4" cy="4" r="4" transform="translate(268 2835)" fill="#fdc800"/><circle cx="4" cy="4" r="4" transform="translate(125 2855)" fill="#fdc800"/><circle cx="4" cy="4" r="4" transform="translate(145 2855)" fill="#fdc800"/><circle cx="4" cy="4" r="4" transform="translate(166 2855)" fill="#fdc800"/><circle cx="4" cy="4" r="4" transform="translate(186 2855)" fill="#fdc800"/><circle cx="4" cy="4" r="4" transform="translate(207 2855)" fill="#fdc800"/><circle cx="4" cy="4" r="4" transform="translate(227 2855)" fill="#fdc800"/><circle cx="4" cy="4" r="4" transform="translate(247 2855)" fill="#fdc800"/><circle cx="4" cy="4" r="4" transform="translate(268 2855)" fill="#fdc800"/><circle cx="4" cy="4" r="4" transform="translate(125 2875)" fill="#fdc800"/><circle cx="4" cy="4" r="4" transform="translate(145 2875)" fill="#fdc800"/><circle cx="4" cy="4" r="4" transform="translate(166 2875)" fill="#fdc800"/><circle cx="4" cy="4" r="4" transform="translate(186 2875)" fill="#fdc800"/><circle cx="4" cy="4" r="4" transform="translate(207 2875)" fill="#fdc800"/><circle cx="4" cy="4" r="4" transform="translate(227 2875)" fill="#fdc800"/><circle cx="4" cy="4" r="4" transform="translate(247 2875)" fill="#fdc800"/><circle cx="4" cy="4" r="4" transform="translate(268 2875)" fill="#fdc800"/></g><g transform="matrix(0.719, 0.695, -0.695, 0.719, 3427.319, 288.621)" opacity="0.35"><circle cx="4" cy="4" r="4" transform="translate(125 2753)" fill="#fdc800"/><circle cx="4" cy="4" r="4" transform="translate(145 2753)" fill="#fdc800"/><circle cx="4" cy="4" r="4" transform="translate(166 2753)" fill="#fdc800"/><circle cx="4" cy="4" r="4" transform="translate(186 2753)" fill="#fdc800"/><circle cx="4" cy="4" r="4" transform="translate(207 2753)" fill="#fdc800"/><circle cx="4" cy="4" r="4" transform="translate(227 2753)" fill="#fdc800"/><circle cx="4" cy="4" r="4" transform="translate(247 2753)" fill="#fdc800"/><circle cx="4" cy="4" r="4" transform="translate(268 2753)" fill="#fdc800"/><circle cx="4" cy="4" r="4" transform="translate(125 2773)" fill="#fdc800"/><circle cx="4" cy="4" r="4" transform="translate(145 2773)" fill="#fdc800"/><circle cx="4" cy="4" r="4" transform="translate(166 2773)" fill="#fdc800"/><circle cx="4" cy="4" r="4" transform="translate(186 2773)" fill="#fdc800"/><circle cx="4" cy="4" r="4" transform="translate(207 2773)" fill="#fdc800"/><circle cx="4" cy="4" r="4" transform="translate(227 2773)" fill="#fdc800"/><circle cx="4" cy="4" r="4" transform="translate(247 2773)" fill="#fdc800"/><circle cx="4" cy="4" r="4" transform="translate(268 2773)" fill="#fdc800"/><circle cx="4" cy="4" r="4" transform="translate(125 2794)" fill="#fdc800"/><circle cx="4" cy="4" r="4" transform="translate(145 2794)" fill="#fdc800"/><circle cx="4" cy="4" r="4" transform="translate(166 2794)" fill="#fdc800"/><circle cx="4" cy="4" r="4" transform="translate(186 2794)" fill="#fdc800"/><circle cx="4" cy="4" r="4" transform="translate(207 2794)" fill="#fdc800"/><circle cx="4" cy="4" r="4" transform="translate(227 2794)" fill="#fdc800"/><circle cx="4" cy="4" r="4" transform="translate(247 2794)" fill="#fdc800"/><circle cx="4" cy="4" r="4" transform="translate(268 2794)" fill="#fdc800"/><circle cx="4" cy="4" r="4" transform="translate(125 2814)" fill="#fdc800"/><circle cx="4" cy="4" r="4" transform="translate(145 2814)" fill="#fdc800"/><circle cx="4" cy="4" r="4" transform="translate(166 2814)" fill="#fdc800"/><circle cx="4" cy="4" r="4" transform="translate(186 2814)" fill="#fdc800"/><circle cx="4" cy="4" r="4" transform="translate(207 2814)" fill="#fdc800"/><circle cx="4" cy="4" r="4" transform="translate(227 2814)" fill="#fdc800"/><circle cx="4" cy="4" r="4" transform="translate(247 2814)" fill="#fdc800"/><circle cx="4" cy="4" r="4" transform="translate(268 2814)" fill="#fdc800"/><circle cx="4" cy="4" r="4" transform="translate(125 2835)" fill="#fdc800"/><circle cx="4" cy="4" r="4" transform="translate(145 2835)" fill="#fdc800"/><circle cx="4" cy="4" r="4" transform="translate(166 2835)" fill="#fdc800"/><circle cx="4" cy="4" r="4" transform="translate(186 2835)" fill="#fdc800"/><circle cx="4" cy="4" r="4" transform="translate(207 2835)" fill="#fdc800"/><circle cx="4" cy="4" r="4" transform="translate(227 2835)" fill="#fdc800"/><circle cx="4" cy="4" r="4" transform="translate(247 2835)" fill="#fdc800"/><circle cx="4" cy="4" r="4" transform="translate(268 2835)" fill="#fdc800"/><circle cx="4" cy="4" r="4" transform="translate(125 2855)" fill="#fdc800"/><circle cx="4" cy="4" r="4" transform="translate(145 2855)" fill="#fdc800"/><circle cx="4" cy="4" r="4" transform="translate(166 2855)" fill="#fdc800"/><circle cx="4" cy="4" r="4" transform="translate(186 2855)" fill="#fdc800"/><circle cx="4" cy="4" r="4" transform="translate(207 2855)" fill="#fdc800"/><circle cx="4" cy="4" r="4" transform="translate(227 2855)" fill="#fdc800"/><circle cx="4" cy="4" r="4" transform="translate(247 2855)" fill="#fdc800"/><circle cx="4" cy="4" r="4" transform="translate(268 2855)" fill="#fdc800"/><circle cx="4" cy="4" r="4" transform="translate(125 2875)" fill="#fdc800"/><circle cx="4" cy="4" r="4" transform="translate(145 2875)" fill="#fdc800"/><circle cx="4" cy="4" r="4" transform="translate(166 2875)" fill="#fdc800"/><circle cx="4" cy="4" r="4" transform="translate(186 2875)" fill="#fdc800"/><circle cx="4" cy="4" r="4" transform="translate(207 2875)" fill="#fdc800"/><circle cx="4" cy="4" r="4" transform="translate(227 2875)" fill="#fdc800"/><circle cx="4" cy="4" r="4" transform="translate(247 2875)" fill="#fdc800"/><circle cx="4" cy="4" r="4" transform="translate(268 2875)" fill="#fdc800"/></g><g transform="matrix(0.719, 0.695, -0.695, 0.719, 2510.319, 1342.621)" opacity="0.35"><circle cx="4" cy="4" r="4" transform="translate(125 2753)" fill="#002147"/><circle cx="4" cy="4" r="4" transform="translate(145 2753)" fill="#002147"/><circle cx="4" cy="4" r="4" transform="translate(166 2753)" fill="#002147"/><circle cx="4" cy="4" r="4" transform="translate(186 2753)" fill="#002147"/><circle cx="4" cy="4" r="4" transform="translate(207 2753)" fill="#002147"/><circle cx="4" cy="4" r="4" transform="translate(227 2753)" fill="#002147"/><circle cx="4" cy="4" r="4" transform="translate(247 2753)" fill="#002147"/><circle cx="4" cy="4" r="4" transform="translate(268 2753)" fill="#002147"/><circle cx="4" cy="4" r="4" transform="translate(125 2773)" fill="#002147"/><circle cx="4" cy="4" r="4" transform="translate(145 2773)" fill="#002147"/><circle cx="4" cy="4" r="4" transform="translate(166 2773)" fill="#002147"/><circle cx="4" cy="4" r="4" transform="translate(186 2773)" fill="#002147"/><circle cx="4" cy="4" r="4" transform="translate(207 2773)" fill="#002147"/><circle cx="4" cy="4" r="4" transform="translate(227 2773)" fill="#002147"/><circle cx="4" cy="4" r="4" transform="translate(247 2773)" fill="#002147"/><circle cx="4" cy="4" r="4" transform="translate(268 2773)" fill="#002147"/><circle cx="4" cy="4" r="4" transform="translate(125 2794)" fill="#002147"/><circle cx="4" cy="4" r="4" transform="translate(145 2794)" fill="#002147"/><circle cx="4" cy="4" r="4" transform="translate(166 2794)" fill="#002147"/><circle cx="4" cy="4" r="4" transform="translate(186 2794)" fill="#002147"/><circle cx="4" cy="4" r="4" transform="translate(207 2794)" fill="#002147"/><circle cx="4" cy="4" r="4" transform="translate(227 2794)" fill="#002147"/><circle cx="4" cy="4" r="4" transform="translate(247 2794)" fill="#002147"/><circle cx="4" cy="4" r="4" transform="translate(268 2794)" fill="#002147"/><circle cx="4" cy="4" r="4" transform="translate(125 2814)" fill="#002147"/><circle cx="4" cy="4" r="4" transform="translate(145 2814)" fill="#002147"/><circle cx="4" cy="4" r="4" transform="translate(166 2814)" fill="#002147"/><circle cx="4" cy="4" r="4" transform="translate(186 2814)" fill="#002147"/><circle cx="4" cy="4" r="4" transform="translate(207 2814)" fill="#002147"/><circle cx="4" cy="4" r="4" transform="translate(227 2814)" fill="#002147"/><circle cx="4" cy="4" r="4" transform="translate(247 2814)" fill="#002147"/><circle cx="4" cy="4" r="4" transform="translate(268 2814)" fill="#002147"/><circle cx="4" cy="4" r="4" transform="translate(125 2835)" fill="#002147"/><circle cx="4" cy="4" r="4" transform="translate(145 2835)" fill="#002147"/><circle cx="4" cy="4" r="4" transform="translate(166 2835)" fill="#002147"/><circle cx="4" cy="4" r="4" transform="translate(186 2835)" fill="#002147"/><circle cx="4" cy="4" r="4" transform="translate(207 2835)" fill="#002147"/><circle cx="4" cy="4" r="4" transform="translate(227 2835)" fill="#002147"/><circle cx="4" cy="4" r="4" transform="translate(247 2835)" fill="#002147"/><circle cx="4" cy="4" r="4" transform="translate(268 2835)" fill="#002147"/><circle cx="4" cy="4" r="4" transform="translate(125 2855)" fill="#002147"/><circle cx="4" cy="4" r="4" transform="translate(145 2855)" fill="#002147"/><circle cx="4" cy="4" r="4" transform="translate(166 2855)" fill="#002147"/><circle cx="4" cy="4" r="4" transform="translate(186 2855)" fill="#002147"/><circle cx="4" cy="4" r="4" transform="translate(207 2855)" fill="#002147"/><circle cx="4" cy="4" r="4" transform="translate(227 2855)" fill="#002147"/><circle cx="4" cy="4" r="4" transform="translate(247 2855)" fill="#002147"/><circle cx="4" cy="4" r="4" transform="translate(268 2855)" fill="#002147"/><circle cx="4" cy="4" r="4" transform="translate(125 2875)" fill="#002147"/><circle cx="4" cy="4" r="4" transform="translate(145 2875)" fill="#002147"/><circle cx="4" cy="4" r="4" transform="translate(166 2875)" fill="#002147"/><circle cx="4" cy="4" r="4" transform="translate(186 2875)" fill="#002147"/><circle cx="4" cy="4" r="4" transform="translate(207 2875)" fill="#002147"/><circle cx="4" cy="4" r="4" transform="translate(227 2875)" fill="#002147"/><circle cx="4" cy="4" r="4" transform="translate(247 2875)" fill="#002147"/><circle cx="4" cy="4" r="4" transform="translate(268 2875)" fill="#002147"/></g><g transform="matrix(0.719, 0.695, -0.695, 0.719, 2242.319, 508.621)" opacity="0.35"><circle cx="4" cy="4" r="4" transform="translate(125 2753)" fill="#fdc800"/><circle cx="4" cy="4" r="4" transform="translate(145 2753)" fill="#fdc800"/><circle cx="4" cy="4" r="4" transform="translate(166 2753)" fill="#fdc800"/><circle cx="4" cy="4" r="4" transform="translate(186 2753)" fill="#fdc800"/><circle cx="4" cy="4" r="4" transform="translate(207 2753)" fill="#fdc800"/><circle cx="4" cy="4" r="4" transform="translate(227 2753)" fill="#fdc800"/><circle cx="4" cy="4" r="4" transform="translate(247 2753)" fill="#fdc800"/><circle cx="4" cy="4" r="4" transform="translate(268 2753)" fill="#fdc800"/><circle cx="4" cy="4" r="4" transform="translate(125 2773)" fill="#fdc800"/><circle cx="4" cy="4" r="4" transform="translate(145 2773)" fill="#fdc800"/><circle cx="4" cy="4" r="4" transform="translate(166 2773)" fill="#fdc800"/><circle cx="4" cy="4" r="4" transform="translate(186 2773)" fill="#fdc800"/><circle cx="4" cy="4" r="4" transform="translate(207 2773)" fill="#fdc800"/><circle cx="4" cy="4" r="4" transform="translate(227 2773)" fill="#fdc800"/><circle cx="4" cy="4" r="4" transform="translate(247 2773)" fill="#fdc800"/><circle cx="4" cy="4" r="4" transform="translate(268 2773)" fill="#fdc800"/><circle cx="4" cy="4" r="4" transform="translate(125 2794)" fill="#fdc800"/><circle cx="4" cy="4" r="4" transform="translate(145 2794)" fill="#fdc800"/><circle cx="4" cy="4" r="4" transform="translate(166 2794)" fill="#fdc800"/><circle cx="4" cy="4" r="4" transform="translate(186 2794)" fill="#fdc800"/><circle cx="4" cy="4" r="4" transform="translate(207 2794)" fill="#fdc800"/><circle cx="4" cy="4" r="4" transform="translate(227 2794)" fill="#fdc800"/><circle cx="4" cy="4" r="4" transform="translate(247 2794)" fill="#fdc800"/><circle cx="4" cy="4" r="4" transform="translate(268 2794)" fill="#fdc800"/><circle cx="4" cy="4" r="4" transform="translate(125 2814)" fill="#fdc800"/><circle cx="4" cy="4" r="4" transform="translate(145 2814)" fill="#fdc800"/><circle cx="4" cy="4" r="4" transform="translate(166 2814)" fill="#fdc800"/><circle cx="4" cy="4" r="4" transform="translate(186 2814)" fill="#fdc800"/><circle cx="4" cy="4" r="4" transform="translate(207 2814)" fill="#fdc800"/><circle cx="4" cy="4" r="4" transform="translate(227 2814)" fill="#fdc800"/><circle cx="4" cy="4" r="4" transform="translate(247 2814)" fill="#fdc800"/><circle cx="4" cy="4" r="4" transform="translate(268 2814)" fill="#fdc800"/><circle cx="4" cy="4" r="4" transform="translate(125 2835)" fill="#fdc800"/><circle cx="4" cy="4" r="4" transform="translate(145 2835)" fill="#fdc800"/><circle cx="4" cy="4" r="4" transform="translate(166 2835)" fill="#fdc800"/><circle cx="4" cy="4" r="4" transform="translate(186 2835)" fill="#fdc800"/><circle cx="4" cy="4" r="4" transform="translate(207 2835)" fill="#fdc800"/><circle cx="4" cy="4" r="4" transform="translate(227 2835)" fill="#fdc800"/><circle cx="4" cy="4" r="4" transform="translate(247 2835)" fill="#fdc800"/><circle cx="4" cy="4" r="4" transform="translate(268 2835)" fill="#fdc800"/><circle cx="4" cy="4" r="4" transform="translate(125 2855)" fill="#fdc800"/><circle cx="4" cy="4" r="4" transform="translate(145 2855)" fill="#fdc800"/><circle cx="4" cy="4" r="4" transform="translate(166 2855)" fill="#fdc800"/><circle cx="4" cy="4" r="4" transform="translate(186 2855)" fill="#fdc800"/><circle cx="4" cy="4" r="4" transform="translate(207 2855)" fill="#fdc800"/><circle cx="4" cy="4" r="4" transform="translate(227 2855)" fill="#fdc800"/><circle cx="4" cy="4" r="4" transform="translate(247 2855)" fill="#fdc800"/><circle cx="4" cy="4" r="4" transform="translate(268 2855)" fill="#fdc800"/><circle cx="4" cy="4" r="4" transform="translate(125 2875)" fill="#fdc800"/><circle cx="4" cy="4" r="4" transform="translate(145 2875)" fill="#fdc800"/><circle cx="4" cy="4" r="4" transform="translate(166 2875)" fill="#fdc800"/><circle cx="4" cy="4" r="4" transform="translate(186 2875)" fill="#fdc800"/><circle cx="4" cy="4" r="4" transform="translate(207 2875)" fill="#fdc800"/><circle cx="4" cy="4" r="4" transform="translate(227 2875)" fill="#fdc800"/><circle cx="4" cy="4" r="4" transform="translate(247 2875)" fill="#fdc800"/><circle cx="4" cy="4" r="4" transform="translate(268 2875)" fill="#fdc800"/></g></g></svg>