<svg xmlns="http://www.w3.org/2000/svg" xmlns:xlink="http://www.w3.org/1999/xlink" width="137.268" height="38.132" viewBox="0 0 137.268 38.132"><defs><linearGradient id="a" x1="0.219" y1="-0.035" x2="0.981" y2="1.416" gradientUnits="objectBoundingBox"><stop offset="0" stop-color="#3d71b7"/><stop offset="1" stop-color="#52c5d7"/></linearGradient><linearGradient id="b" x1="0.441" y1="0" x2="0.511" y2="1.15" xlink:href="#a"/><linearGradient id="c" x1="0" y1="0.5" x2="1" y2="0.5" xlink:href="#a"/><linearGradient id="d" x1="7.347" y1="29.237" x2="8.347" y2="29.237" xlink:href="#a"/></defs><g transform="translate(-7.884)"><g transform="translate(74 10.645)"><path d="M4.3,77.479H6.368a1.622,1.622,0,0,0,.68,1.241,2.791,2.791,0,0,0,1.625.414,2.45,2.45,0,0,0,1.389-.325,1.076,1.076,0,0,0,.473-.946q0-.945-2.659-1.536l-.059-.03-.236-.059a6.155,6.155,0,0,1-2.009-.68,1.766,1.766,0,0,1-.827-.946,3.143,3.143,0,0,1,.709-3.634,4.62,4.62,0,0,1,2.925-.8,4.176,4.176,0,0,1,2.778.827A3.278,3.278,0,0,1,12.219,73.4H11.037a1.006,1.006,0,0,1-.975-.621,1.461,1.461,0,0,0-.414-.5A2.431,2.431,0,0,0,8.2,71.895a1.968,1.968,0,0,0-1.271.325,1.07,1.07,0,0,0-.443.916q0,.8,1.714,1.182a5.171,5.171,0,0,0,.739.177q.532.177.931.281t.635.163l.827.355a2.557,2.557,0,0,1,.916.916,2.887,2.887,0,0,1,.325,1.359A3.053,3.053,0,0,1,11.51,80.05a4.812,4.812,0,0,1-3.014.827,4.544,4.544,0,0,1-3.014-.857A3.264,3.264,0,0,1,4.3,77.479Zm11.713,3.162v-9.1a1.026,1.026,0,0,1,.31-.753,1.14,1.14,0,0,1,.753-.34h2.039l2.009,7.771,2.009-7.771h3.1V80.641h-1.95V72.426l-2.068,8.214H20.061l-2.1-8.214v8.214ZM34.138,70.476h1.655l3.694,10.165H37.27l-.68-2.1H32.631l-.65,2.1H29.765l3.368-9.485A.992.992,0,0,1,34.138,70.476Zm.473,2.039-1.418,4.314h2.837Zm8.374,8.126v-9.1a1.059,1.059,0,0,1,1.064-1.064h3.871a3.61,3.61,0,0,1,2.452.709,3.2,3.2,0,0,1,.414,3.723,2.017,2.017,0,0,1-1.123.857,1.645,1.645,0,0,1,.946.709,3.5,3.5,0,0,1,.325,1.507l.059,1.211v.384a2.32,2.32,0,0,0,.03.384.9.9,0,0,0,.355.68h-2.3a1.709,1.709,0,0,1-.177-.62,6.194,6.194,0,0,1-.059-.65l-.03-1.093a2.391,2.391,0,0,0-.355-1.271,1.613,1.613,0,0,0-1.152-.325H45.082v3.959h-2.1Zm2.1-5.732h2.452a1.8,1.8,0,0,0,1.182-.325,1.506,1.506,0,0,0,0-2.009,1.445,1.445,0,0,0-1.064-.355H45.082v2.689Zm12.747,5.732V72.279H54.815V71.54a1.059,1.059,0,0,1,1.064-1.064h7.032v1.8H59.927v8.362Zm14.284,0h-2.1V76.859l-3.694-6.382h2.571l2.157,4.373,1.743-3.782a1.01,1.01,0,0,1,.975-.591h1.684l-3.339,6.382v3.782Z" transform="translate(-4.3 -70.181)" fill="#fafafa"/><path d="M4.3,90.9h.809a.634.634,0,0,0,.266.485,1.091,1.091,0,0,0,.636.162.958.958,0,0,0,.543-.127.421.421,0,0,0,.185-.37q0-.37-1.04-.6l-.023-.012-.092-.023a2.407,2.407,0,0,1-.786-.266.69.69,0,0,1-.324-.37,1.229,1.229,0,0,1,.277-1.421,1.807,1.807,0,0,1,1.144-.312,1.633,1.633,0,0,1,1.086.324A1.282,1.282,0,0,1,7.4,89.3H6.935a.393.393,0,0,1-.381-.243.571.571,0,0,0-.162-.2.951.951,0,0,0-.566-.15.77.77,0,0,0-.5.127.419.419,0,0,0-.173.358q0,.312.67.462a2.018,2.018,0,0,0,.289.069q.208.069.364.11l.248.064.324.139a1,1,0,0,1,.358.358,1.129,1.129,0,0,1,.127.532,1.194,1.194,0,0,1-.416.971,1.882,1.882,0,0,1-1.179.324,1.777,1.777,0,0,1-1.179-.335A1.277,1.277,0,0,1,4.3,90.9Zm6.374,1.236h-.8V90.169a.476.476,0,0,0-.168-.4.607.607,0,0,0-.376-.127.582.582,0,0,0-.37.127.483.483,0,0,0-.162.4v1.964H7.993v-1.8a1.165,1.165,0,0,1,.41-1.052,1.793,1.793,0,0,1,.907-.289,2.341,2.341,0,0,1,.52.058,1.1,1.1,0,0,1,.462.231,1.021,1.021,0,0,1,.41-.214,2.3,2.3,0,0,1,.491-.075,1.74,1.74,0,0,1,.936.266,1.172,1.172,0,0,1,.428,1.075v1.8h-.4a.376.376,0,0,1-.393-.393V90.169a.476.476,0,0,0-.168-.4.618.618,0,0,0-.751,0,.475.475,0,0,0-.168.4v1.964Zm4.363-.127a1.423,1.423,0,0,1-.514.156,4.643,4.643,0,0,1-.48.029,1.21,1.21,0,0,1-.728-.225A.857.857,0,0,1,13,91.221a.8.8,0,0,1,.283-.693,1.631,1.631,0,0,1,.722-.277.678.678,0,0,0,.139-.017c.054-.012.116-.021.185-.029q.508-.069.508-.3a.219.219,0,0,0-.179-.225,1.191,1.191,0,0,0-.329-.052.845.845,0,0,0-.289.046.315.315,0,0,0-.185.173h-.774a.89.89,0,0,1,.324-.589,1.334,1.334,0,0,1,.89-.266,1.741,1.741,0,0,1,.971.22.742.742,0,0,1,.335.647v1.052a1.328,1.328,0,0,1-.168.722A1.025,1.025,0,0,1,15.037,92.006Zm-.185-1.421a2.18,2.18,0,0,1-.451.15l-.266.058a.682.682,0,0,0-.3.15.47.47,0,0,0-.081.254.375.375,0,0,0,.1.277.438.438,0,0,0,.3.092.64.64,0,0,0,.693-.693v-.289Zm1.162,1.548V90.643a1.9,1.9,0,0,1,.133-.757,1.252,1.252,0,0,1,.364-.491,1.429,1.429,0,0,1,.514-.254,2.287,2.287,0,0,1,.607-.081h.116v.82h-.266a.677.677,0,0,0-.5.162.694.694,0,0,0-.162.508v1.583h-.809Zm3.474,0a6.006,6.006,0,0,1-.826-.012q-.445-.035-.445-.566v-3.4h.416a.366.366,0,0,1,.266.116.379.379,0,0,1,.116.277v.52h.474v.162a.373.373,0,0,1-.116.283.388.388,0,0,1-.277.11h-.081v1.71q0,.2.231.2h.243v.6Zm1.99,0V88.574a.414.414,0,0,1,.416-.416h2.473v.682h-2.08V89.7h1.548v.266a.414.414,0,0,1-.416.416H22.287v1.017h2.08v.74H21.478Zm5.357-3.986h.393a.37.37,0,0,1,.277.121.385.385,0,0,1,.116.272v2.253a1.194,1.194,0,0,1-.474,1.109,1.939,1.939,0,0,1-1.028.289,1.82,1.82,0,0,1-.589-.1.969.969,0,0,1-.462-.318,1.843,1.843,0,0,1-.335-1.167,1.874,1.874,0,0,1,.335-1.167,1.126,1.126,0,0,1,1.4-.335,1.1,1.1,0,0,1,.37.358Zm-1.317,2.427a1.2,1.2,0,0,0,.173.7.574.574,0,0,0,.5.243.562.562,0,0,0,.485-.243,1.273,1.273,0,0,0,.162-.7,1.113,1.113,0,0,0-.173-.659.6.6,0,0,0-.5-.231.551.551,0,0,0-.474.243A1.06,1.06,0,0,0,25.517,90.573Zm5.218-1.514v1.8a1.154,1.154,0,0,1-.428,1.075,1.8,1.8,0,0,1-.936.254,1.857,1.857,0,0,1-.907-.277,1.147,1.147,0,0,1-.41-1.052v-1.8h.809v1.964a.482.482,0,0,0,.162.4.581.581,0,0,0,.37.127.605.605,0,0,0,.376-.127.475.475,0,0,0,.168-.4V89.453a.388.388,0,0,1,.11-.277.374.374,0,0,1,.283-.116h.4ZM33.3,91.186h.578a1.262,1.262,0,0,1-.485.74,1.471,1.471,0,0,1-.9.266,1.287,1.287,0,0,1-1.028-.427,1.734,1.734,0,0,1-.37-1.19,1.715,1.715,0,0,1,.358-1.156,1.288,1.288,0,0,1,1.028-.428,1.384,1.384,0,0,1,1.075.416,1.585,1.585,0,0,1,.3.589h-.809a.681.681,0,0,0-.116-.173.555.555,0,0,0-.428-.162.563.563,0,0,0-.416.162,1.129,1.129,0,0,0-.208.763,1.081,1.081,0,0,0,.208.751.546.546,0,0,0,.451.185.654.654,0,0,0,.335-.081.16.16,0,0,0,.064-.04L33,91.336a.509.509,0,0,1,.092-.092A.32.32,0,0,1,33.3,91.186Zm2.965.82a1.423,1.423,0,0,1-.514.156,4.643,4.643,0,0,1-.48.029,1.21,1.21,0,0,1-.728-.225.857.857,0,0,1-.312-.745.8.8,0,0,1,.283-.693,1.631,1.631,0,0,1,.722-.277.678.678,0,0,0,.139-.017c.054-.012.116-.021.185-.029q.508-.069.508-.3a.219.219,0,0,0-.179-.225,1.191,1.191,0,0,0-.329-.052.845.845,0,0,0-.289.046.315.315,0,0,0-.185.173h-.774a.89.89,0,0,1,.324-.589,1.334,1.334,0,0,1,.89-.266,1.741,1.741,0,0,1,.971.22.742.742,0,0,1,.335.647v1.052a1.328,1.328,0,0,1-.168.722A1.025,1.025,0,0,1,36.261,92.006Zm-.185-1.421a2.18,2.18,0,0,1-.451.15l-.266.058a.682.682,0,0,0-.3.15.47.47,0,0,0-.081.254.375.375,0,0,0,.1.277.438.438,0,0,0,.3.092.64.64,0,0,0,.693-.693ZM38.6,92.133a6.006,6.006,0,0,1-.826-.012q-.445-.035-.445-.566v-3.4h.416a.366.366,0,0,1,.266.116.379.379,0,0,1,.116.277v.52H38.6v.162a.373.373,0,0,1-.116.283.388.388,0,0,1-.277.11h-.081v1.71q0,.2.231.2H38.6v.6Zm.434-3.975h.416a.395.395,0,0,1,.393.393v.243h-.809Zm0,.9h.416a.394.394,0,0,1,.393.393v2.681h-.809Zm1.521,2.8a1.142,1.142,0,0,1-.347-.56,2.577,2.577,0,0,1-.1-.734,2.321,2.321,0,0,1,.087-.624,1.287,1.287,0,0,1,.272-.52,1.2,1.2,0,0,1,.774-.41,1.783,1.783,0,0,1,.855.075,1.178,1.178,0,0,1,.647.6,1.918,1.918,0,0,1,.2.89,2.2,2.2,0,0,1-.081.636,1.628,1.628,0,0,1-.208.451,1.155,1.155,0,0,1-.7.474,1.573,1.573,0,0,1-.768.017A1.344,1.344,0,0,1,40.558,91.856Zm.555-2.034a1.065,1.065,0,0,0-.22.792,1.259,1.259,0,0,0,.2.734.517.517,0,0,0,.243.156.552.552,0,0,0,.352.012.591.591,0,0,0,.318-.26,1.3,1.3,0,0,0,.15-.67,1.175,1.175,0,0,0-.133-.624.6.6,0,0,0-.306-.266.562.562,0,0,0-.347-.006A.6.6,0,0,0,41.112,89.822Zm4.929,2.311h-.4a.376.376,0,0,1-.393-.393V90.169a.476.476,0,0,0-.168-.4.606.606,0,0,0-.376-.127.582.582,0,0,0-.37.127.483.483,0,0,0-.162.4v1.964h-.809v-1.8a1.165,1.165,0,0,1,.41-1.052,1.793,1.793,0,0,1,.907-.289,1.74,1.74,0,0,1,.936.266,1.172,1.172,0,0,1,.428,1.075v1.8Zm2.387-.127a1.423,1.423,0,0,1-.514.156,4.643,4.643,0,0,1-.48.029,1.21,1.21,0,0,1-.728-.225.857.857,0,0,1-.312-.745.8.8,0,0,1,.283-.693,1.631,1.631,0,0,1,.722-.277.678.678,0,0,0,.139-.017q.081-.017.185-.029.508-.069.508-.3a.219.219,0,0,0-.179-.225,1.191,1.191,0,0,0-.329-.052.845.845,0,0,0-.289.046.315.315,0,0,0-.185.173h-.774a.89.89,0,0,1,.324-.589,1.334,1.334,0,0,1,.89-.266,1.741,1.741,0,0,1,.971.22.742.742,0,0,1,.335.647v1.052a1.328,1.328,0,0,1-.168.722A1.025,1.025,0,0,1,48.429,92.006Zm-.185-1.421a2.18,2.18,0,0,1-.451.15l-.266.058a.682.682,0,0,0-.3.15.47.47,0,0,0-.081.254.375.375,0,0,0,.1.277.438.438,0,0,0,.3.092.64.64,0,0,0,.693-.693v-.289Zm1.2-2.427h.416a.389.389,0,0,1,.277.11.36.36,0,0,1,.116.272v3.594h-.809V88.158ZM52.309,90.9h.809a.634.634,0,0,0,.266.485,1.091,1.091,0,0,0,.636.162.958.958,0,0,0,.543-.127.421.421,0,0,0,.185-.37q0-.37-1.04-.6l-.023-.012-.092-.023a2.406,2.406,0,0,1-.786-.266.69.69,0,0,1-.324-.37,1.229,1.229,0,0,1,.277-1.421,1.807,1.807,0,0,1,1.144-.312,1.633,1.633,0,0,1,1.086.324,1.282,1.282,0,0,1,.416.936h-.462a.393.393,0,0,1-.381-.243.571.571,0,0,0-.162-.2.951.951,0,0,0-.566-.15.77.77,0,0,0-.5.127.419.419,0,0,0-.173.358q0,.312.67.462a2.018,2.018,0,0,0,.289.069q.208.069.364.11l.248.064.324.139a1,1,0,0,1,.358.358,1.129,1.129,0,0,1,.127.532,1.194,1.194,0,0,1-.416.971,1.882,1.882,0,0,1-1.179.324,1.777,1.777,0,0,1-1.179-.335A1.277,1.277,0,0,1,52.309,90.9Zm4.074.959a1.142,1.142,0,0,1-.347-.56,2.577,2.577,0,0,1-.1-.734,2.321,2.321,0,0,1,.087-.624,1.287,1.287,0,0,1,.272-.52,1.2,1.2,0,0,1,.774-.41,1.783,1.783,0,0,1,.855.075,1.178,1.178,0,0,1,.647.6,1.918,1.918,0,0,1,.2.89,2.2,2.2,0,0,1-.081.636,1.628,1.628,0,0,1-.208.451,1.155,1.155,0,0,1-.7.474,1.573,1.573,0,0,1-.768.017A1.344,1.344,0,0,1,56.384,91.856Zm.555-2.034a1.065,1.065,0,0,0-.22.792,1.259,1.259,0,0,0,.2.734.517.517,0,0,0,.243.156.552.552,0,0,0,.352.012.591.591,0,0,0,.318-.26,1.3,1.3,0,0,0,.15-.67,1.175,1.175,0,0,0-.133-.624.6.6,0,0,0-.306-.266.562.562,0,0,0-.347-.006A.6.6,0,0,0,56.938,89.822Zm2.283-1.664h.416a.389.389,0,0,1,.277.11.36.36,0,0,1,.116.272v3.594h-.809V88.158Zm3.924.9v1.8a1.154,1.154,0,0,1-.428,1.075,1.8,1.8,0,0,1-.936.254,1.857,1.857,0,0,1-.907-.277,1.147,1.147,0,0,1-.41-1.052v-1.8h.809v1.964a.482.482,0,0,0,.162.4.581.581,0,0,0,.37.127.605.605,0,0,0,.376-.127.475.475,0,0,0,.168-.4V89.453a.388.388,0,0,1,.11-.277.373.373,0,0,1,.283-.116h.4Zm1.786,3.074a6.006,6.006,0,0,1-.826-.012q-.445-.035-.445-.566v-3.4h.416a.366.366,0,0,1,.266.116.379.379,0,0,1,.116.277v.52h.474v.162a.373.373,0,0,1-.116.283.388.388,0,0,1-.277.11h-.081v1.71q0,.2.231.2h.243v.6Zm.434-3.975h.416a.395.395,0,0,1,.393.393v.243h-.809Zm0,.9h.416a.394.394,0,0,1,.393.393v2.681h-.809Zm1.521,2.8a1.142,1.142,0,0,1-.347-.56,2.577,2.577,0,0,1-.1-.734,2.32,2.32,0,0,1,.087-.624,1.287,1.287,0,0,1,.272-.52,1.2,1.2,0,0,1,.774-.41,1.783,1.783,0,0,1,.855.075,1.178,1.178,0,0,1,.647.6,1.918,1.918,0,0,1,.2.89,2.2,2.2,0,0,1-.081.636,1.628,1.628,0,0,1-.208.451,1.155,1.155,0,0,1-.7.474,1.573,1.573,0,0,1-.768.017A1.344,1.344,0,0,1,66.887,91.856Zm.555-2.034a1.065,1.065,0,0,0-.22.792,1.259,1.259,0,0,0,.2.734.517.517,0,0,0,.243.156.552.552,0,0,0,.352.012.591.591,0,0,0,.318-.26,1.3,1.3,0,0,0,.15-.67,1.175,1.175,0,0,0-.133-.624.6.6,0,0,0-.306-.266.562.562,0,0,0-.347-.006A.6.6,0,0,0,67.442,89.822Zm4.929,2.311h-.4a.376.376,0,0,1-.393-.393V90.169a.476.476,0,0,0-.168-.4.607.607,0,0,0-.376-.127.582.582,0,0,0-.37.127.483.483,0,0,0-.162.4v1.964H69.69v-1.8a1.165,1.165,0,0,1,.41-1.052,1.793,1.793,0,0,1,.907-.289,1.74,1.74,0,0,1,.936.266,1.172,1.172,0,0,1,.428,1.075v1.8Zm.354-1.017h.786a.425.425,0,0,0,.173.347.821.821,0,0,0,.462.116A.745.745,0,0,0,74.5,91.5a.246.246,0,0,0,.139-.22q0-.208-.485-.312a2.2,2.2,0,0,1-.312-.069,1.822,1.822,0,0,1-.82-.358.709.709,0,0,1-.231-.555.92.92,0,0,1,.335-.728,1.441,1.441,0,0,1,.9-.266,1.575,1.575,0,0,1,.959.266,1.017,1.017,0,0,1,.358.751h-.5a.367.367,0,0,1-.335-.2l-.092-.092a.623.623,0,0,0-.381-.1.687.687,0,0,0-.347.069.233.233,0,0,0-.1.208q0,.185.6.312a1.18,1.18,0,0,0,.121.035.45.45,0,0,0,.1.012,2.14,2.14,0,0,1,.82.347.729.729,0,0,1,.22.555.924.924,0,0,1-.37.786,1.754,1.754,0,0,1-1.04.254,1.525,1.525,0,0,1-.982-.266.929.929,0,0,1-.335-.774v-.035Z" transform="translate(-4.3 -75.384)" fill="#fafafa"/></g><g transform="translate(7.884 0)"><path d="M73.777,26.59v8.776l-3.512,1.741V31.136a4.548,4.548,0,0,1,2.584-4.1Z" transform="translate(-31.4 -10.619)" fill-rule="evenodd" fill="url(#a)"/><path d="M22.06,40.417v2.336a5.076,5.076,0,0,1-.68,2.538h0a.511.511,0,0,0,.442.766h3.419a.511.511,0,0,0,.442-.766h0A5.076,5.076,0,0,1,25,42.753V40.417h-.655V38.185a1.613,1.613,0,0,0,0-2.793v-9.16L22.715,25.5v9.891a1.613,1.613,0,0,0,0,2.8v2.228H22.06Z" transform="translate(-17.139 -10.301)" fill="url(#b)"/><g transform="translate(17.616 7.712)"><path d="M77.732,20.76a.51.51,0,0,0,.017-.937l-9.015-4.063a8.808,8.808,0,0,0-3.423-.666l-17.647-.156c-2.263-.02-4.058.8-4,1.826s1.947,1.878,4.211,1.9l2.36.021h0l2.151.019c2.527.022,9.163.566,10.07,3.9.836,3.077-3.6,4.58-5.851,5.1a21.469,21.469,0,0,1-6.31.387c-2.6-.211-6.757-2.793-9.128-.779l-.886.665,10.333,4.659a1.02,1.02,0,0,0,.843,0l2.879-1.314.909-.415,20.1-9.173Z" transform="translate(-40.282 -14.936)" fill="url(#c)"/></g><path d="M15.727,16.078a.51.51,0,0,0,0,.931l8.918,4.013a8.808,8.808,0,0,0,3.423.666l17.647.156c2.263.02,4.058-.8,4-1.826s-1.947-1.878-4.211-1.9l-2.36-.021h0l-2.151-.019c-2.527-.022-9.163-.566-10.07-3.9-.836-3.077,3.6-4.58,5.851-5.1a21.469,21.469,0,0,1,6.31-.387c2.6.211,6.757,2.793,9.128.779L53.1,8.8,42.764,4.145a1.02,1.02,0,0,0-.843,0L39.042,5.461l-.909.415-20.1,9.173Z" transform="translate(-15.425 -4.055)" fill="url(#d)"/><g transform="translate(13.008 20.803)"><path d="M59.636,41.416l-10.693,5.3a1.079,1.079,0,0,1-.958,0L37.859,41.7a1.02,1.02,0,0,1-.567-.914V35.15l-3.513-1.74v9.542a1.02,1.02,0,0,0,.567.914l13.638,6.76a1.079,1.079,0,0,0,.958,0l10.693-5.3,3.512-1.741v-3.91Z" transform="translate(-33.779 -33.41)" fill-rule="evenodd" fill="url(#c)"/></g></g></g></svg>