<svg xmlns="http://www.w3.org/2000/svg"  viewBox="0 0 312.024 302.672"><g transform="translate(-29.598 -4.408)"><g transform="translate(29.598 4.408)"><path d="M310.189,6.647v15.88h.007l-.007,35.678V88.869h-.006l-.006,32.82c0,21.948-4.858,43.762-15.156,63.144q-1.209,2.276-2.547,4.59c-14.9,25.741-45.515,59.547-106.865,75.408-61.353-15.862-91.961-49.667-106.865-75.409q-1.346-2.324-2.56-4.614c-10.291-19.375-15.139-41.179-15.143-63.118l-.006-32.821h-.005V60l-.007-37.473h0l0-15.88H29.6l.023,121.735a135.52,135.52,0,0,0,5.49,38.711,177.3,177.3,0,0,0,16.441,38.073c18.155,31.354,55.271,72.558,128.988,90.791l1.972.487H188.7l1.972-.487c73.716-18.232,110.833-59.436,128.988-90.791A177.3,177.3,0,0,0,336.1,167.094a135.515,135.515,0,0,0,5.49-38.711l.023-121.735h-31.43Z" transform="translate(-29.596 6.226)" fill="#fcb11f"/><path d="M47.714,118.474a115.037,115.037,0,0,0,42.512,89.288,115.037,115.037,0,0,0,42.512-89.288A143.837,143.837,0,0,0,90.227,16.3,143.838,143.838,0,0,0,47.714,118.474Z" transform="translate(65.785 57.061)" fill="none"/><path d="M185.61,37.154A174.671,174.671,0,0,0,83.834,4.592H29.6V35.85h31.25v-.013H83.833a143.379,143.379,0,0,1,77.214,22.493A176.436,176.436,0,0,1,185.61,37.154Z" transform="translate(-29.598 -4.592)" fill="#fcb11f"/><path d="M176.9,292.883l-1.047-.258c-71.057-17.573-106.708-57.078-124.1-87.12a165.632,165.632,0,0,1-19.532-52.04,85.2,85.2,0,0,1-1.362-15.5L30.845,5.839H77.268a167.534,167.534,0,0,1,97.293,31.146l4.482,3.2,4.535-3.235A167.33,167.33,0,0,1,280.752,5.839h46.49l-.027,138.268c-.059.686-2.064,28.906-20.878,61.395-17.395,30.045-53.046,69.55-124.1,87.123l-1.047.258H176.9Zm-3.372-227.03a151.054,151.054,0,0,0-44.81,107.707A122.653,122.653,0,0,0,174.1,268.9l4.939,4.029,4.939-4.029A122.655,122.655,0,0,0,229.37,173.56,151.044,151.044,0,0,0,184.557,65.853l-5.515-5.493Zm107.292-44.4a151.435,151.435,0,0,0-81.408,23.714L191.345,50.3l6.637,6.882A166.867,166.867,0,0,1,244.989,173.56a138.43,138.43,0,0,1-18.506,69.152l-15.328,26.546,26.164-15.968c23.375-14.267,42.514-33.528,55.353-55.7,15.067-26.018,18.227-49.563,18.706-54.018l.046-.417.022-121.7H280.82ZM46.666,143.182l.046.412c.474,4.441,3.6,27.916,18.706,54,12.838,22.172,31.977,41.432,55.35,55.694l26.164,15.966L131.6,242.709a138.413,138.413,0,0,1-18.5-69.149,166.865,166.865,0,0,1,47-116.373l6.637-6.882-8.066-5.133A151.709,151.709,0,0,0,77.23,21.458H46.644Z" transform="translate(-23.031 1.974)" fill="#fcb11f" opacity="0.21"/><path d="M171.85,279.945l-.218-.054q-8.026-1.986-15.438-4.341l-24.409-42.264a131.4,131.4,0,0,1-17.562-65.634A159.873,159.873,0,0,1,159.259,56.158l12.609-13.075-15.328-9.751A158.785,158.785,0,0,0,71.312,8.519H33.705l.024,129.144.043.388c.541,5.068,3.838,29.838,19.653,57.156,13.428,23.187,33.4,43.3,57.772,58.173L133.682,267.1c-44.008-19.335-68.457-48.064-81.753-71.028a157.955,157.955,0,0,1-18.692-49.626,79.063,79.063,0,0,1-1.27-14.4l0-125.088H71.417a160.325,160.325,0,0,1,93.1,29.8l8.618,6.147,8.571-6.114A160.5,160.5,0,0,1,274.914,6.961H314.3L314.28,137.9c-.366,4.107-3.2,29.275-19.933,58.171-13.293,22.961-37.734,51.684-81.732,71.02l22.46-13.708c24.371-14.876,44.35-34.994,57.775-58.179,15.783-27.259,19.107-52.088,19.61-56.79l.086-1.168L312.57,8.52H274.962a158.785,158.785,0,0,0-85.229,24.813L174.4,43.084l12.612,13.075a159.876,159.876,0,0,1,45.036,111.494,131.384,131.384,0,0,1-17.564,65.634l-24.4,42.264q-7.42,2.35-15.444,4.341l-.215.054H171.85ZM162.659,54.963a158.038,158.038,0,0,0-46.877,112.689,129.655,129.655,0,0,0,47.97,100.79l9.385,7.655,9.382-7.655a129.647,129.647,0,0,0,47.975-100.79,158.036,158.036,0,0,0-46.88-112.689L173.137,44.529Z" transform="translate(-17.126 7.882)" fill="#fcb11f" opacity="0.21"/><path d="M97.012,134.966A115.037,115.037,0,0,1,54.5,224.254a115.36,115.36,0,0,0,28.079,16.939,146.027,146.027,0,0,0,45.68-106.227h0a174.9,174.9,0,0,0-49.2-121.8A145.3,145.3,0,0,0,54.5,32.793,143.838,143.838,0,0,1,97.012,134.966Z" transform="translate(101.512 40.569)" fill="#fcb11f"/><path d="M218.262,4.592A175.649,175.649,0,0,0,42.727,180.127h0a146.729,146.729,0,0,0,73.759,127.136,146.923,146.923,0,0,0,28.079-20.909A115.732,115.732,0,0,1,73.973,180.127,143.838,143.838,0,0,1,116.486,77.954a145.3,145.3,0,0,1,24.563-19.624,143.38,143.38,0,0,1,77.214-22.493h22.985v.013H272.5V4.592Z" transform="translate(39.526 -4.592)" fill="#fcb11f"/><g transform="translate(124.491 140.79)"><path d="M69.887,28.158A28.22,28.22,0,1,1,50.562,47.483,14.114,14.114,0,0,0,69.887,28.158Z" transform="translate(-49.469 -27.064)" fill="#fcb11f" fill-rule="evenodd"/><path d="M60.983,38.557a28.41,28.41,0,0,0-7.444,27.079A27.982,27.982,0,0,0,87.921,31.085,28.4,28.4,0,0,0,60.983,38.557Z" transform="translate(-32.6 -10.277)" fill="#fcb11f"/></g><path d="M47.714,118.474a115.037,115.037,0,0,0,42.512,89.288,115.037,115.037,0,0,0,42.512-89.288A143.837,143.837,0,0,0,90.227,16.3,143.838,143.838,0,0,0,47.714,118.474Z" transform="translate(65.785 57.061)" fill="none"/><path d="M70.941,68.919a20.085,20.085,0,0,1-14.329-5.851A20.409,20.409,0,0,1,50.731,50.6l.355,0a21.921,21.921,0,0,0,21.922-22.28A20.407,20.407,0,0,1,91.232,50.5L91.14,51.5c-.083.6-.186,1.222-.334,1.846a20.343,20.343,0,0,1-.654,2.2c-.153.431-.32.88-.522,1.33a19.426,19.426,0,0,1-1.311,2.5c-.172.28-.35.557-.541.829a17.376,17.376,0,0,1-5.127,5.141l-.894.584a20.042,20.042,0,0,1-2.46,1.292c-.466.2-.918.369-1.373.53a20.312,20.312,0,0,1-2.121.632c-.657.156-1.265.261-1.887.347l-.587.054C72.254,68.889,71.6,68.919,70.941,68.919Z" transform="translate(81.668 120.369)" fill="#fcb11f" opacity="0.21"/></g></g></svg>