<svg xmlns="http://www.w3.org/2000/svg"  viewBox="0 0 142.967 42.67"><g transform="translate(-841.76 -278.859)"><g transform="translate(892.908 288.969)"><path d="M104.545,2067.62l-4.532,13.8H97.252l-4.512-13.8h3.137l2.751,9.208,2.761-9.208Z" transform="translate(-92.74 -2067.62)" fill="#547dbf"/><path d="M629.941,2081.417H627.18v-13.8h2.761Z" transform="translate(-610.117 -2067.62)" fill="#547dbf"/><path d="M889.575,2067.62l-4.531,13.8h-2.761l-4.512-13.8h3.136l2.752,9.208,2.761-9.208Z" transform="translate(-852.706 -2067.62)" fill="#547dbf"/><path d="M1414.981,2081.417h-2.761v-13.8h2.761Z" transform="translate(-1370.092 -2067.62)" fill="#547dbf"/><path d="M1713.344,2074.517a6.809,6.809,0,0,1-.943,3.478,7.1,7.1,0,0,1-1.078,1.4,6.85,6.85,0,0,1-4.878,2.025h-4.156v-13.8h4.156a6.849,6.849,0,0,1,4.878,2.025,7.124,7.124,0,0,1,1.078,1.395A6.811,6.811,0,0,1,1713.344,2074.517Zm-2.761,0a4.032,4.032,0,0,0-.323-1.607,4.158,4.158,0,0,0-2.2-2.2,4.013,4.013,0,0,0-1.611-.327h-1.376v8.274h1.376a4.059,4.059,0,0,0,1.611-.323,4.115,4.115,0,0,0,2.2-2.2,4.062,4.062,0,0,0,.321-1.611Z" transform="translate(-1650.901 -2067.619)" fill="#547dbf"/><path d="M2238.859,2081.417H2229.2v-13.8h2.761v11.035h6.9Z" transform="translate(-2160.987 -2067.62)" fill="#547dbf"/><path d="M2629.837,2081.417h-2.752v-4.32a5.387,5.387,0,0,1-1.679-.741,5.506,5.506,0,0,1-2.165-2.785,5.422,5.422,0,0,1-.3-1.814v-4.137h2.761v4.137a2.7,2.7,0,0,0,.217,1.073,2.762,2.762,0,0,0,5.089,0,2.694,2.694,0,0,0,.216-1.073v-4.137h2.752v4.137a5.416,5.416,0,0,1-.3,1.814,5.53,5.53,0,0,1-2.16,2.785,5.324,5.324,0,0,1-1.674.741Z" transform="translate(-2542.155 -2067.62)" fill="#547dbf"/><path d="M708.579,2650.324a1.352,1.352,0,0,1-.924.289,2.921,2.921,0,0,1-1.115-.208v-.47a2.839,2.839,0,0,0,1.1.235.776.776,0,0,0,.533-.172.6.6,0,0,0,.194-.479.686.686,0,0,0-.16-.5.813.813,0,0,0-.481-.2,2.205,2.205,0,0,1-.432-.087,1.431,1.431,0,0,1-.358-.175.721.721,0,0,1-.262-.317,1.169,1.169,0,0,1-.09-.481,1.13,1.13,0,0,1,.279-.812,1.108,1.108,0,0,1,.842-.292,2.735,2.735,0,0,1,1.039.2v.447a2.667,2.667,0,0,0-1.011-.2.609.609,0,0,0-.467.167.629.629,0,0,0-.156.447.529.529,0,0,0,.177.454,1.147,1.147,0,0,0,.517.18,2.117,2.117,0,0,1,.418.1,1.33,1.33,0,0,1,.344.186.761.761,0,0,1,.255.339,1.388,1.388,0,0,1,.088.522A1.057,1.057,0,0,1,708.579,2650.324Z" transform="translate(-686.943 -2628.163)" fill="#547dbf"/><path d="M795.22,2647.933a.983.983,0,0,1,.347-.814,1.554,1.554,0,0,1,1.776,0,.989.989,0,0,1,.347.814v1.765a.992.992,0,0,1-.347.818,1.542,1.542,0,0,1-1.776,0,.992.992,0,0,1-.347-.818Zm.514,1.684a.713.713,0,0,0,.2.563.763.763,0,0,0,.522.175q.711,0,.711-.738v-1.6q0-.738-.711-.738a.764.764,0,0,0-.522.175.712.712,0,0,0-.2.563Z" transform="translate(-772.791 -2628.347)" fill="#547dbf"/><path d="M918.331,2648.89l.754,2.662a3.936,3.936,0,0,1,.126.606,3.339,3.339,0,0,1,.12-.6l.76-2.667h.53l-1.17,3.826h-.487l-1.175-3.826Z" transform="translate(-891.448 -2630.331)" fill="#547dbf"/><path d="M1016.74,2648.89h.525v3.826h-.525Z" transform="translate(-987.239 -2630.331)" fill="#547dbf"/><path d="M1043.49,2648.89l.754,2.662a3.936,3.936,0,0,1,.126.606,3.339,3.339,0,0,1,.12-.6l.76-2.667h.53l-1.169,3.826h-.487l-1.175-3.826Z" transform="translate(-1012.612 -2630.331)" fill="#547dbf"/><path d="M1141.87,2648.89h.525v3.826h-.525Z" transform="translate(-1108.374 -2630.331)" fill="#547dbf"/><path d="M1177.13,2648.89h1.257a1.1,1.1,0,0,1,.823.3,1.17,1.17,0,0,1,.3.856v1.509a1.17,1.17,0,0,1-.3.855,1.1,1.1,0,0,1-.823.3h-1.257Zm1.257,3.384q.6,0,.6-.793v-1.355q0-.787-.6-.787h-.732v2.936Z" transform="translate(-1142.508 -2630.331)" fill="#547dbf"/><path d="M1335.31,2648.89h2.028v.447h-1.5v1.208h1.257v.437h-1.257v1.29h1.547v.442h-2.072Z" transform="translate(-1295.637 -2630.331)" fill="#547dbf"/><path d="M1408.027,2652.716l-.279-.924h-1.279l-.273.924h-.536l1.219-3.826h.475l1.213,3.826Zm-1.437-1.339h1.039l-.394-1.323q-.038-.154-.126-.607a2.8,2.8,0,0,1-.12.6Z" transform="translate(-1363.741 -2630.331)" fill="#547dbf"/><path d="M1506.309,2650.324a1.35,1.35,0,0,1-.923.289,2.921,2.921,0,0,1-1.115-.208v-.47a2.84,2.84,0,0,0,1.1.235.775.775,0,0,0,.533-.172.607.607,0,0,0,.194-.479.686.686,0,0,0-.16-.5.812.812,0,0,0-.481-.2,2.2,2.2,0,0,1-.432-.087,1.435,1.435,0,0,1-.358-.175.72.72,0,0,1-.262-.317,1.174,1.174,0,0,1-.091-.481,1.129,1.129,0,0,1,.279-.812,1.109,1.109,0,0,1,.842-.292,2.735,2.735,0,0,1,1.039.2v.447a2.667,2.667,0,0,0-1.011-.2.609.609,0,0,0-.467.167.629.629,0,0,0-.156.447.529.529,0,0,0,.177.454,1.147,1.147,0,0,0,.516.18,2.114,2.114,0,0,1,.418.1,1.332,1.332,0,0,1,.345.186.765.765,0,0,1,.255.339,1.4,1.4,0,0,1,.087.522A1.057,1.057,0,0,1,1506.309,2650.324Z" transform="translate(-1459.203 -2628.163)" fill="#547dbf"/><path d="M1581.736,2648.88l.749,1.416a3.323,3.323,0,0,1,.208.492c0-.011.017-.043.041-.1l.082-.183c.031-.069.064-.14.1-.213l.743-1.416h.579l-1.3,2.329v1.5h-.508v-1.5l-1.3-2.329Z" transform="translate(-1533.619 -2630.322)" fill="#547dbf"/><path d="M1725.541,2651.192h-.6v1.525h-.525v-3.827h1.257a1.162,1.162,0,0,1,.82.282.947.947,0,0,1,.306.729v.279a.994.994,0,0,1-.192.612.951.951,0,0,1-.53.351l.787,1.574h-.6Zm-.6-.443h.732a.549.549,0,0,0,.437-.183.709.709,0,0,0,.16-.479v-.1a.69.69,0,0,0-.156-.475.556.556,0,0,0-.44-.175h-.732Z" transform="translate(-1672.324 -2630.331)" fill="#547dbf"/><path d="M1815.121,2648.89h2.028v.447h-1.5v1.208h1.258v.437h-1.257v1.29h1.544v.442h-2.071Z" transform="translate(-1760.128 -2630.331)" fill="#547dbf"/><path d="M1887.877,2652.716l-.279-.924h-1.279l-.273.924h-.536l1.219-3.826h.476l1.213,3.826Zm-1.437-1.339h1.039l-.394-1.323q-.038-.154-.126-.607a2.8,2.8,0,0,1-.12.6Z" transform="translate(-1828.271 -2630.331)" fill="#547dbf"/><path d="M1984.194,2650.608a2.382,2.382,0,0,1-.945.18,1.226,1.226,0,0,1-.853-.276,1.046,1.046,0,0,1-.306-.817v-1.771a1.044,1.044,0,0,1,.306-.817,1.228,1.228,0,0,1,.853-.276,2.373,2.373,0,0,1,.945.181v.431a2.512,2.512,0,0,0-.891-.164q-.694,0-.694.732v1.6q0,.732.694.732a2.507,2.507,0,0,0,.891-.164Z" transform="translate(-1921.767 -2628.338)" fill="#547dbf"/><path d="M2062.69,2648.89h.525v1.618h1.334v-1.618h.525v3.826h-.525v-1.754h-1.334v1.754h-.525Z" transform="translate(-1999.794 -2630.331)" fill="#547dbf"/><path d="M2156.33,2648.89h.525v3.826h-.525Z" transform="translate(-2090.444 -2630.331)" fill="#547dbf"/><path d="M2191.41,2648.89h.447l1.437,2.635v-2.635h.525v3.826h-.447l-1.437-2.624v2.624h-.525Z" transform="translate(-2124.404 -2630.331)" fill="#547dbf"/><path d="M2287.305,2647.424a2.529,2.529,0,0,0-.891-.164q-.694,0-.694.732v1.6q0,.732.639.743a1.7,1.7,0,0,0,.541-.082v-1.208h-.672v-.405h1.191v1.929a2.833,2.833,0,0,1-1.077.2,1.189,1.189,0,0,1-.847-.279,1.075,1.075,0,0,1-.3-.82V2647.9a1.045,1.045,0,0,1,.306-.817,1.227,1.227,0,0,1,.853-.276,2.376,2.376,0,0,1,.945.18Z" transform="translate(-2215.199 -2628.319)" fill="#547dbf"/></g><path d="M878.1,278.859a24.626,24.626,0,0,0-14.349,4.591h0a24.624,24.624,0,0,0-14.348-4.591H841.76v4.406h0l0,14.571a19.1,19.1,0,0,0,.774,5.457,25,25,0,0,0,2.318,5.368c2.56,4.42,7.792,10.229,18.185,12.8l.278.069h.873l.278-.069c10.392-2.571,15.625-8.38,18.185-12.8a24.984,24.984,0,0,0,2.318-5.368,19.1,19.1,0,0,0,.774-5.457l0-14.571h0v-4.406Zm-29.415,27.583q-.19-.328-.361-.651a18.96,18.96,0,0,1-2.135-8.9v-4.627h0v-9h3.216a20.213,20.213,0,0,1,10.885,3.171,24.647,24.647,0,0,0-6.937,17.172h0a20.526,20.526,0,0,0,2.757,10.3A21.23,21.23,0,0,1,848.689,306.442Zm15.066,9.752h0a16.219,16.219,0,0,1-5.993-12.588,20.277,20.277,0,0,1,5.993-14.4h0a20.278,20.278,0,0,1,5.994,14.4A16.218,16.218,0,0,1,863.755,316.194Zm17.564-28.251v4.323h0v4.627a18.949,18.949,0,0,1-2.137,8.9q-.17.321-.359.647a21.227,21.227,0,0,1-7.424,7.464,20.526,20.526,0,0,0,2.755-10.3h0a24.657,24.657,0,0,0-6.936-17.171h0a20.217,20.217,0,0,1,10.887-3.171h3.216Z" transform="translate(0 0)" fill="#fcb11f" fill-rule="evenodd"/><path d="M1394.307,900.653a1.99,1.99,0,0,1-2.724,2.724,3.979,3.979,0,1,0,2.724-2.724Z" transform="translate(-532.118 -601.791)" fill="#fcb11f" fill-rule="evenodd"/></g></svg>