<svg xmlns="http://www.w3.org/2000/svg" xmlns:xlink="http://www.w3.org/1999/xlink" viewBox="0 0 500 500"><defs><style>.cls-1{isolation:isolate;}.cls-2,.cls-3,.cls-4,.cls-5,.cls-6,.cls-7{fill-rule:evenodd;}.cls-2{fill:url(#linear-gradient);}.cls-3{fill:url(#linear-gradient-2);}.cls-4{fill:url(#linear-gradient-3);}.cls-5{fill:url(#linear-gradient-4);}.cls-6{fill:#1b2938;opacity:0.7;mix-blend-mode:multiply;}.cls-7,.cls-8{mix-blend-mode:screen;}.cls-7{fill:url(#linear-gradient-5);}.cls-8{fill:url(#linear-gradient-6);}</style><linearGradient id="linear-gradient" x1="141.7" y1="96.86" x2="346.38" y2="401.88" gradientUnits="userSpaceOnUse"><stop offset="0" stop-color="#0da092"/><stop offset="1" stop-color="#83c88a"/></linearGradient><linearGradient id="linear-gradient-2" x1="126.15" y1="54.63" x2="146.11" y2="84.37" xlink:href="#linear-gradient"/><linearGradient id="linear-gradient-3" x1="108.58" y1="114.37" x2="137.82" y2="157.94" xlink:href="#linear-gradient"/><linearGradient id="linear-gradient-4" x1="406.37" y1="118.34" x2="327.14" y2="340.18" gradientUnits="userSpaceOnUse"><stop offset="0" stop-color="#78ccd0"/><stop offset="1" stop-color="#005aa9"/></linearGradient><linearGradient id="linear-gradient-5" x1="215.78" y1="417.55" x2="330.51" y2="417.55" xlink:href="#linear-gradient"/><linearGradient id="linear-gradient-6" x1="381.51" y1="133.24" x2="451.49" y2="186.06" xlink:href="#linear-gradient-4"/></defs><g class="cls-1"><g id="Layer_1" data-name="Layer 1"><path class="cls-2" d="M273.14,284.79,214.52,183.26l0,0-45.49-78.8a11.14,11.14,0,1,0-19.3,11.15l45.43,78.7,27,46.7,5.57,9.65a11.15,11.15,0,1,1-19.31,11.15l-7.47-12.94-40.27-69.75a11.15,11.15,0,0,0-19.31,11.15L162,226a11.15,11.15,0,0,1-19.33,11.11L64.61,102a11.14,11.14,0,1,0-19.3,11.15L169.4,328.05l0,0L224.78,424c21.37,37,75.36,37,96.73,0L403,282.77C319.41,381.39,273.14,284.79,273.14,284.79Z"/><path class="cls-3" d="M130.25,81.88a11.15,11.15,0,0,0,19.31-11.14l-9.75-16.9A11.15,11.15,0,1,0,120.5,65Z"/><path class="cls-4" d="M121.68,156.2A11.14,11.14,0,0,0,141,145.06L121.5,111.31a11.15,11.15,0,1,0-19.31,11.15Z"/><path class="cls-5" d="M428.35,127.44h0a55.91,55.91,0,0,0-76.13,20.4l-79.08,137s46.27,96.6,129.88-2l45.73-79.2A55.89,55.89,0,0,0,428.35,127.44Z"/><path class="cls-6" d="M321.09,307.86a77.73,77.73,0,0,1-40.82-35.42l-7.13,12.35h0s46.27,96.6,129.88-2C403,282.77,362.67,323.32,321.09,307.86Z"/><path class="cls-7" d="M215.78,391.71,232,419.79c18.17,31.47,64.13,31.47,82.3,0l16.22-28.09s-23,37.19-56.75,38.18c-33.47,1-57.59-37.54-58-38.17Z"/><path class="cls-8" d="M418.49,145.33a54.39,54.39,0,0,1,25.31,55.91,50.51,50.51,0,0,0-19-65.51h0A50.51,50.51,0,0,0,359.38,147,54.38,54.38,0,0,1,418.49,145.33Z"/></g></g></svg>