<svg xmlns="http://www.w3.org/2000/svg" xmlns:xlink="http://www.w3.org/1999/xlink"  viewBox="0 0 225.704 89.291"><defs><linearGradient id="a" x1="0.272" y1="0.001" x2="0.842" y2="0.86" gradientUnits="objectBoundingBox"><stop offset="0" stop-color="#0ca092"/><stop offset="1" stop-color="#83c88a"/></linearGradient><linearGradient id="b" x1="0.223" y1="0.162" x2="0.846" y2="0.922" xlink:href="#a"/><linearGradient id="c" x1="0.188" y1="0.154" x2="0.889" y2="0.932" xlink:href="#a"/><linearGradient id="d" x1="0.728" y1="-0.008" x2="0.295" y2="1.063" gradientUnits="objectBoundingBox"><stop offset="0" stop-color="#78ccd0"/><stop offset="1" stop-color="#005aa9"/></linearGradient><linearGradient id="e" x1="0" y1="0.5" x2="1" y2="0.5" xlink:href="#a"/><linearGradient id="f" x1="0.247" y1="0.067" x2="1.028" y2="0.792" xlink:href="#d"/></defs><g transform="translate(-3.928)"><g transform="translate(3.928 0)"><path d="M76.073,53.126,63.1,30.654l0,.008L53.035,13.224a2.467,2.467,0,1,0-4.273,2.467L58.819,33.109l5.967,10.336,1.234,2.136a2.467,2.467,0,1,1-4.273,2.467l-1.654-2.863L51.181,29.747a2.467,2.467,0,0,0-4.273,2.467l4.556,7.89a2.467,2.467,0,0,1-4.278,2.459l-17.264-29.9a2.467,2.467,0,1,0-4.273,2.467L53.113,62.7l0,.008,12.251,21.22a12.4,12.4,0,0,0,21.409,0l18.041-31.248C86.312,74.5,76.073,53.126,76.073,53.126Z" transform="translate(-25.32 -0.78)" fill-rule="evenodd" fill="url(#a)"/><path d="M38.449,12.057A2.467,2.467,0,1,0,42.721,9.59L40.563,5.851A2.467,2.467,0,0,0,36.29,8.318Z" transform="translate(-19.32 -4.619)" fill-rule="evenodd" fill="url(#b)"/><path d="M38.011,23.92a2.467,2.467,0,0,0,4.273-2.467l-4.312-7.468A2.467,2.467,0,1,0,33.7,16.452Z" transform="translate(-20.781 -0.034)" fill-rule="evenodd" fill="url(#c)"/><path d="M92.127,16.415h0a12.371,12.371,0,0,0-16.85,4.515l-17.5,30.312s10.239,21.379,28.745-.447l10.121-17.53A12.371,12.371,0,0,0,92.127,16.415Z" transform="translate(-7.022 1.104)" fill-rule="evenodd" fill="url(#d)"/><g transform="translate(50.752 49.612)"><path d="M68.388,44.183a17.2,17.2,0,0,1-9.034-7.838l-1.578,2.732h0s10.239,21.379,28.745-.447C86.521,38.631,77.591,47.6,68.388,44.183Z" transform="translate(-57.775 -36.345)" fill="#1b2938" fill-rule="evenodd" opacity="0.7"/></g><path d="M49.657,53.227l3.588,6.215a10.55,10.55,0,0,0,18.214,0l3.59-6.218s-5.094,8.233-12.561,8.452c-7.407.217-12.745-8.31-12.831-8.448Z" transform="translate(-11.599 22.782)" fill-rule="evenodd" fill="url(#e)" style="mix-blend-mode:screen;isolation:isolate"/><path d="M83.063,19.707a12.041,12.041,0,0,1,5.6,12.375,11.181,11.181,0,0,0-4.215-14.5h0a11.178,11.178,0,0,0-14.47,2.495A12.039,12.039,0,0,1,83.063,19.707Z" transform="translate(-0.142 1.772)" fill="url(#f)" style="mix-blend-mode:screen;isolation:isolate"/></g><g transform="translate(121.035 38.924)"><g transform="translate(0)"><path d="M30.56,88.56l-5.919-13.9H19.777L28.17,94.117h4.446l8.42-19.453H36.562Z" transform="translate(-19.777 -74.664)" fill="#fff"/><path d="M55.491,86h9.032V82.5H55.491V78.277H65.717V74.664h-14.7V94.117H66.079V90.5H55.491Z" transform="translate(-2.166 -74.664)" fill="#fff"/><path d="M71.753,74.664l-8.67,19.453H67.7l1.723-4.169H78.45l-7.587-3.418,3.085-7.448,4.5,10.866,1.723,4.169H84.9L76.2,74.664Z" transform="translate(4.636 -74.664)" fill="#fff"/><path d="M84.608,90.449V74.664h-4.5V94.117H94.362V90.449Z" transform="translate(14.234 -74.664)" fill="#fff"/><path d="M53.047,81.723c0-4.363-3.252-7.059-8.448-7.059h-8.42V94.117h4.5V78.333h3.668c2.751,0,4.14,1.251,4.14,3.39,0,2.112-1.389,3.39-4.14,3.39H42.4l6.177,9h4.835l-4.363-6.253A6.325,6.325,0,0,0,53.047,81.723Z" transform="translate(-10.531 -74.664)" fill="#fff"/></g><g transform="translate(0 24.514)"><path d="M22.668,94.924a1.411,1.411,0,0,1-.352.119,2.815,2.815,0,0,1-.605.051,3.384,3.384,0,0,1-.738-.081,1.444,1.444,0,0,1-.935-.537,1.7,1.7,0,0,1-.26-.97V91.972a1.437,1.437,0,0,1,.6-1.326,2.72,2.72,0,0,1,1.429-.305q1.51,0,1.79.85a2.227,2.227,0,0,1,.094.688v.072l-.909.068v-.184a.714.714,0,0,0-.218-.608,1.34,1.34,0,0,0-.765-.16,1.554,1.554,0,0,0-.822.174.679.679,0,0,0-.275.623V93.6a.636.636,0,0,0,.283.614,1.74,1.74,0,0,0,.822.156,1.576,1.576,0,0,0,.8-.156.659.659,0,0,0,.257-.614v-.336h-.928v-.607H23.7v2.357h-.489l-.146-.529a.617.617,0,0,1-.154.254A1.024,1.024,0,0,1,22.668,94.924Z" transform="translate(-19.777 -90.341)" fill="#fff"/><path d="M22.972,94.986v-.691h.838V91.079h-.838v-.688h2.59v.688h-.831v3.216h.831v.691Z" transform="translate(-17.976 -90.312)" fill="#fff"/><path d="M26.654,94.986l-1.631-4.6h.99L27.227,94.1,28.4,90.391h.99l-1.619,4.6Z" transform="translate(-16.82 -90.312)" fill="#fff"/><path d="M28.213,94.986v-.691h.838V91.079h-.838v-.688H30.8v.688h-.831v3.216H30.8v.691Z" transform="translate(-15.022 -90.312)" fill="#fff"/><path d="M30.562,94.986v-4.6h.694l2.388,3.15v-3.15h.822v4.6h-.694l-2.378-3.1v3.1Z" transform="translate(-13.697 -90.312)" fill="#fff"/><path d="M36.646,94.924a1.411,1.411,0,0,1-.352.119,2.815,2.815,0,0,1-.605.051,3.384,3.384,0,0,1-.738-.081,1.444,1.444,0,0,1-.935-.537,1.7,1.7,0,0,1-.26-.97V91.972a1.437,1.437,0,0,1,.6-1.326,2.72,2.72,0,0,1,1.429-.305q1.51,0,1.79.85a2.228,2.228,0,0,1,.094.688v.072l-.909.068v-.184a.714.714,0,0,0-.218-.608,1.34,1.34,0,0,0-.765-.16,1.554,1.554,0,0,0-.822.174.679.679,0,0,0-.275.623V93.6a.636.636,0,0,0,.283.614,1.74,1.74,0,0,0,.822.156,1.576,1.576,0,0,0,.8-.156.659.659,0,0,0,.257-.614v-.336h-.928v-.607h1.762v2.357h-.489l-.146-.529a.617.617,0,0,1-.154.254A1.017,1.017,0,0,1,36.646,94.924Z" transform="translate(-11.897 -90.341)" fill="#fff"/><path d="M38.042,94.986v-4.6h.924v3.873h1.921v.722Z" transform="translate(-9.481 -90.312)" fill="#fff"/><path d="M40.311,94.986v-.691h.838V91.079h-.838v-.688H42.9v.688H42.07v3.216H42.9v.691Z" transform="translate(-8.201 -90.312)" fill="#fff"/><path d="M42.66,94.986v-4.6h2.78V91.1H43.585v1.252h1.728v.663H43.585v1.974H42.66Z" transform="translate(-6.877 -90.312)" fill="#fff"/><path d="M45,94.986v-4.6h3.01v.7H45.917v1.22H47.77v.667H45.917v1.314h2.123v.7H45Z" transform="translate(-5.56 -90.312)" fill="#fff"/><path d="M49.576,94.986V91.094H48.3v-.7h3.481v.7H50.5v3.891Z" transform="translate(-3.699 -90.312)" fill="#fff"/><path d="M52.94,95.095a1.972,1.972,0,0,1-1.781-.672,1.746,1.746,0,0,1-.243-.968V92.016a1.484,1.484,0,0,1,.6-1.354,2.688,2.688,0,0,1,1.435-.321,1.844,1.844,0,0,1,1.731.716,1.954,1.954,0,0,1,.237,1.005V93.4a1.545,1.545,0,0,1-.592,1.358A2.4,2.4,0,0,1,52.94,95.095Zm-.819-.906a1.531,1.531,0,0,0,.827.181,1.381,1.381,0,0,0,.8-.179.73.73,0,0,0,.248-.633V91.891a.744.744,0,0,0-.252-.637,1.334,1.334,0,0,0-.792-.188,1.5,1.5,0,0,0-.822.186.709.709,0,0,0-.282.638v1.666A.7.7,0,0,0,52.121,94.189Z" transform="translate(-2.222 -90.341)" fill="#fff"/><path d="M56.407,94.986V93.221l-1.584-2.83H55.8l1.077,1.921,1.074-1.921h.934l-1.553,2.83v1.765Z" transform="translate(-0.02 -90.312)" fill="#fff"/><path d="M59.761,95.095a1.971,1.971,0,0,1-1.781-.672,1.744,1.744,0,0,1-.243-.968V92.016a1.483,1.483,0,0,1,.6-1.354,2.687,2.687,0,0,1,1.435-.321,1.844,1.844,0,0,1,1.731.716,1.948,1.948,0,0,1,.237,1.005V93.4a1.545,1.545,0,0,1-.591,1.358A2.406,2.406,0,0,1,59.761,95.095Zm-.819-.906a1.533,1.533,0,0,0,.827.181,1.382,1.382,0,0,0,.8-.179.73.73,0,0,0,.248-.633V91.891a.745.745,0,0,0-.252-.637,1.334,1.334,0,0,0-.792-.188,1.5,1.5,0,0,0-.822.186.709.709,0,0,0-.282.638v1.666A.7.7,0,0,0,58.942,94.189Z" transform="translate(1.623 -90.341)" fill="#fff"/><path d="M62.891,95.068a1.9,1.9,0,0,1-1.7-.616,1.666,1.666,0,0,1-.227-.921V90.388h.925V93.57a.679.679,0,0,0,.248.6,1.348,1.348,0,0,0,.755.17,1.231,1.231,0,0,0,.73-.169.713.713,0,0,0,.222-.6V90.388h.925v3.1a1.419,1.419,0,0,1-.541,1.276A2.445,2.445,0,0,1,62.891,95.068Z" transform="translate(3.443 -90.314)" fill="#fff"/><path d="M64.128,94.986v-4.6h1.983a1.591,1.591,0,0,1,1.212.361,1.414,1.414,0,0,1,.323.979,1.737,1.737,0,0,1-.179.9,1.012,1.012,0,0,1-.5.406l.887,1.949H66.9l-.806-1.815h-1.04v1.815Zm.925-2.475h1.136a.5.5,0,0,0,.45-.185,1.027,1.027,0,0,0,.123-.562q0-.717-.536-.716H65.053v1.463Z" transform="translate(5.226 -90.312)" fill="#fff"/><path d="M68.11,94.986v-4.6h1.8a1.589,1.589,0,0,1,1.133.349,1.518,1.518,0,0,1,.364,1.137,1.632,1.632,0,0,1-.35,1.156,1.667,1.667,0,0,1-1.238.369h-.787v1.584Zm.925-2.26h.934a.5.5,0,0,0,.456-.192,1.242,1.242,0,0,0,.12-.63q0-.629-.277-.791A.558.558,0,0,0,70,91.047h-.965Z" transform="translate(7.471 -90.312)" fill="#fff"/><path d="M70.77,94.986v-4.6h1.983a1.591,1.591,0,0,1,1.212.361,1.414,1.414,0,0,1,.323.979,1.736,1.736,0,0,1-.179.9,1.012,1.012,0,0,1-.5.406l.887,1.949H73.54l-.806-1.815h-1.04v1.815Zm.925-2.475H72.83a.5.5,0,0,0,.45-.185,1.027,1.027,0,0,0,.123-.562q0-.717-.536-.716H71.694v1.463Z" transform="translate(8.97 -90.312)" fill="#fff"/><path d="M75.688,95.095a1.971,1.971,0,0,1-1.781-.672,1.744,1.744,0,0,1-.243-.968V92.016a1.483,1.483,0,0,1,.6-1.354,2.687,2.687,0,0,1,1.435-.321,1.843,1.843,0,0,1,1.731.716,1.948,1.948,0,0,1,.237,1.005V93.4a1.545,1.545,0,0,1-.591,1.358A2.406,2.406,0,0,1,75.688,95.095Zm-.819-.906a1.532,1.532,0,0,0,.827.181,1.382,1.382,0,0,0,.8-.179.73.73,0,0,0,.248-.633V91.891a.744.744,0,0,0-.252-.637,1.334,1.334,0,0,0-.792-.188,1.5,1.5,0,0,0-.822.186.709.709,0,0,0-.282.638v1.666A.7.7,0,0,0,74.869,94.189Z" transform="translate(10.602 -90.341)" fill="#fff"/><path d="M79.251,94.7a1.813,1.813,0,0,1-1.2.366,3.189,3.189,0,0,1-1.37-.286l.215-.685a2.635,2.635,0,0,0,.53.174,2.513,2.513,0,0,0,.547.069.8.8,0,0,0,.6-.2.73.73,0,0,0,.19-.524V91.094H77.184v-.7H79.69v3.281A1.262,1.262,0,0,1,79.251,94.7Z" transform="translate(12.304 -90.312)" fill="#fff"/><path d="M79.354,94.986v-4.6h3.011v.7H80.276v1.22h1.853v.667H80.276v1.314H82.4v.7H79.354Z" transform="translate(13.81 -90.312)" fill="#fff"/><path d="M83.89,95.095a4.22,4.22,0,0,1-.917-.081,1.814,1.814,0,0,1-.559-.215,1.02,1.02,0,0,1-.335-.344,1.337,1.337,0,0,1-.166-.431,2.776,2.776,0,0,1-.042-.517V91.972a1.338,1.338,0,0,1,1.217-1.578,3.787,3.787,0,0,1,.7-.053q1.423,0,1.7.778a2.487,2.487,0,0,1,.125.835v.056l-.906.106v-.233a.855.855,0,0,0-.189-.648,1.118,1.118,0,0,0-.72-.168,1.34,1.34,0,0,0-.768.17.727.727,0,0,0-.235.627V93.6a.678.678,0,0,0,.241.615,1.468,1.468,0,0,0,.767.154,2.564,2.564,0,0,0,.439-.03.591.591,0,0,0,.272-.119.455.455,0,0,0,.151-.24,1.594,1.594,0,0,0,.04-.4v-.147h.906v.084a1.842,1.842,0,0,1-.2.985,1.162,1.162,0,0,1-.577.447A2.688,2.688,0,0,1,83.89,95.095Z" transform="translate(15.229 -90.341)" fill="#fff"/><path d="M85.874,94.986V91.094h-1.28v-.7h3.481v.7H86.8v3.891Z" transform="translate(16.764 -90.312)" fill="#fff"/><path d="M88.859,95.095a3.93,3.93,0,0,1-.9-.112,3.163,3.163,0,0,1-.822-.305L87.452,94a3.012,3.012,0,0,0,1.429.368.726.726,0,0,0,.523-.153.622.622,0,0,0,.153-.458c0-.039,0-.1-.013-.177q-.028-.281-.623-.458l-.784-.23a1.456,1.456,0,0,1-.579-.3,1.017,1.017,0,0,1-.3-.433,1.746,1.746,0,0,1-.077-.55,1.085,1.085,0,0,1,.45-.95,1.943,1.943,0,0,1,1.147-.317,3.025,3.025,0,0,1,1.538.358l-.261.651a2.777,2.777,0,0,0-1.2-.283q-.747,0-.769.458v.047a.528.528,0,0,0,.117.364,1.085,1.085,0,0,0,.478.24l.782.233a1.316,1.316,0,0,1,.7.452,1.45,1.45,0,0,1,.229.876,1.373,1.373,0,0,1-.362.963A1.533,1.533,0,0,1,88.859,95.095Z" transform="translate(18.196 -90.341)" fill="#fff"/></g></g></g></svg>