<svg
  xmlns="http://www.w3.org/2000/svg"
  xmlns:xlink="http://www.w3.org/1999/xlink"
  viewBox="0 0 41.359 40.466"
  opacity="0.2"
><defs><linearGradient
      id="a"
      x1="0.272"
      y1="0.001"
      x2="0.842"
      y2="0.86"
      gradientUnits="objectBoundingBox"
    ><stop offset="0" stop-color="#0ca092" /><stop
        offset="1"
        stop-color="#83c88a"
      /></linearGradient><linearGradient
      id="b"
      x1="0.223"
      y1="0.162"
      x2="0.846"
      y2="0.922"
      xlink:href="#a"
    /><linearGradient
      id="c"
      x1="0.188"
      y1="0.154"
      x2="0.889"
      y2="0.932"
      xlink:href="#a"
    /><linearGradient
      id="d"
      x1="0.728"
      y1="-0.008"
      x2="0.295"
      y2="1.063"
      gradientUnits="objectBoundingBox"
    ><stop offset="0" stop-color="#78ccd0" /><stop
        offset="1"
        stop-color="#005aa9"
      /></linearGradient><linearGradient
      id="e"
      x1="0"
      y1="0.5"
      x2="1"
      y2="0.5"
      xlink:href="#a"
    /><linearGradient
      id="f"
      x1="0.247"
      y1="0.067"
      x2="1.028"
      y2="0.792"
      xlink:href="#d"
    /></defs><g transform="translate(0 0)"><path
      d="M48.321,30.326,42.441,20.142l0,0-4.563-7.9a1.118,1.118,0,1,0-1.936,1.118L40.5,21.254l2.7,4.684.559.968a1.118,1.118,0,1,1-1.936,1.118l-.749-1.3-4.039-7A1.118,1.118,0,0,0,35.1,20.849l2.065,3.576a1.118,1.118,0,0,1-1.939,1.114L27.4,11.987a1.118,1.118,0,1,0-1.936,1.118L37.915,34.664l0,0,5.552,9.617a5.618,5.618,0,0,0,9.7,0l8.176-14.161C52.961,40.014,48.321,30.326,48.321,30.326Z"
      transform="translate(-25.32 -6.603)"
      fill-rule="evenodd"
      fill="url(#a)"
    /><path
      d="M37.088,7.99a1.118,1.118,0,1,0,1.936-1.118l-.978-1.694A1.118,1.118,0,0,0,36.11,6.3Z"
      transform="translate(-28.42 -4.619)"
      fill-rule="evenodd"
      fill="url(#b)"
    /><path
      d="M35.474,17.814A1.118,1.118,0,0,0,37.41,16.7l-1.954-3.384a1.118,1.118,0,1,0-1.936,1.118Z"
      transform="translate(-27.665 -6.989)"
      fill-rule="evenodd"
      fill="url(#c)"
    /><path
      d="M73.343,15.516h0a5.606,5.606,0,0,0-7.636,2.046L57.776,31.3s4.64,9.689,13.027-.2l4.587-7.944A5.607,5.607,0,0,0,73.343,15.516Z"
      transform="translate(-34.774 -7.577)"
      fill-rule="evenodd"
      fill="url(#d)"
    /><g transform="translate(23.001 22.484)"><path
        d="M62.585,39.9a7.8,7.8,0,0,1-4.094-3.552l-.715,1.238h0s4.64,9.689,13.027-.2C70.8,37.381,66.755,41.448,62.585,39.9Z"
        transform="translate(-57.775 -36.345)"
        fill="#1b2938"
        fill-rule="evenodd"
        opacity="0.5"
      /></g><path
      d="M49.657,53.225l1.626,2.816a4.781,4.781,0,0,0,8.255,0l1.627-2.818s-2.309,3.731-5.693,3.83c-3.357.1-5.776-3.766-5.815-3.829Z"
      transform="translate(-32.409 -18.778)"
      fill-rule="evenodd"
      fill="url(#e)"
      style="mix-blend-mode:screen;isolation:isolate"
    /><path
      d="M75.91,17.656a5.457,5.457,0,0,1,2.539,5.608,5.067,5.067,0,0,0-1.91-6.571h0a5.066,5.066,0,0,0-6.557,1.131A5.456,5.456,0,0,1,75.91,17.656Z"
      transform="translate(-38.33 -7.922)"
      fill="url(#f)"
      style="mix-blend-mode:screen;isolation:isolate"
    /></g></svg>
